<svg width="618" height="622" viewBox="0 0 618 622" fill="none" xmlns="http://www.w3.org/2000/svg">
<path d="M538.996 422.253C538.996 422.253 524.673 411.436 531.062 406.547C533.291 404.853 538.268 410.232 538.996 416.235C539.724 410.291 544.702 404.853 546.931 406.547C553.32 411.436 538.996 422.253 538.996 422.253Z" fill="#37474F"/>
<path opacity="0.2" d="M538.996 422.253C538.996 422.253 524.673 411.436 531.062 406.547C533.291 404.853 538.268 410.232 538.996 416.235C539.724 410.291 544.702 404.853 546.931 406.547C553.32 411.436 538.996 422.253 538.996 422.253Z" fill="black"/>
<path d="M538.996 422.252C530.349 422.252 523.93 414.377 525.891 410.945C528.12 407.037 535.891 416.235 535.891 416.235C535.891 416.235 532.919 403.233 538.996 403.233C545.073 403.233 542.102 416.235 542.102 416.235C542.102 416.235 549.888 407.037 552.116 410.945C554.137 414.377 547.644 422.252 538.996 422.252Z" fill="#37474F"/>
<path d="M514.554 515.104L513.157 546.634C508.016 547.095 490.498 542.176 482.103 533.781C475.788 527.466 477.437 507.868 480.944 483.589C484.45 459.31 491.449 456.502 497.288 457.898C498.649 458.216 499.914 458.859 500.973 459.771C504.079 462.46 505.431 467.512 505.936 474.02C506.634 482.653 503.128 505.312 504.064 510.676C504.169 511.349 504.422 511.99 504.804 512.552C505.187 513.115 505.691 513.586 506.278 513.93C508.937 515.58 513.187 515.104 514.554 515.104Z" fill="#A8B794"/>
<path d="M562.874 558.833C562.874 558.833 538.001 567.926 512.087 558.833C512.087 558.833 514.539 458.656 517.689 441.851C520.839 425.046 527.971 416.948 539.398 416.948C540.137 416.949 540.876 416.989 541.611 417.067C550.72 418.033 557.064 425.016 559.011 438.315C560.497 448.508 561.819 504.867 562.458 536.768C562.726 549.858 562.874 558.833 562.874 558.833Z" fill="#A8B794"/>
<path d="M592.874 501.865C584.464 510.26 566.946 515.238 561.82 514.703L560.423 483.173C562.34 483.173 569.992 484.109 570.928 478.715C571.864 473.322 568.357 450.692 569.056 442.059C569.754 433.426 571.849 427.349 577.703 425.938C578.192 425.82 578.689 425.741 579.189 425.7C584.702 425.165 590.838 429.37 594.048 451.628C595.524 461.121 596.515 470.682 597.02 480.276C597.436 490.632 596.396 498.329 592.874 501.865Z" fill="#A8B794"/>
<path d="M538.996 416.948C539.386 416.933 539.769 417.054 540.081 417.29C540.399 417.511 540.688 417.77 540.943 418.062C541.444 418.633 541.882 419.255 542.25 419.919C542.945 421.298 543.517 422.735 543.959 424.214C544.845 427.162 545.54 430.165 546.039 433.203C547.049 439.28 547.614 445.402 548.045 451.539C548.476 457.675 548.654 463.812 548.773 469.949L549.115 488.343C549.249 500.617 549.442 512.89 549.516 525.148L549.605 543.558C549.605 549.695 549.605 555.831 549.531 561.968C549.278 555.831 549.115 549.695 548.907 543.573L548.431 525.163C548.134 512.905 547.956 500.632 547.718 488.373C547.48 476.115 547.57 463.827 546.99 451.598C546.678 445.476 546.232 439.369 545.37 433.307C544.976 430.276 544.385 427.273 543.602 424.318C543.233 422.841 542.736 421.399 542.116 420.009C541.801 419.317 541.407 418.664 540.943 418.062C540.714 417.759 540.444 417.489 540.14 417.26C539.812 417.015 539.403 416.903 538.996 416.948Z" fill="#374425"/>
<path d="M557.109 560.423C556.946 554.286 556.857 548.15 556.738 542.013L556.47 523.603L556.01 486.784C555.95 480.652 555.851 474.52 555.712 468.389L555.594 463.782L555.43 459.206C555.267 456.145 555.044 453.084 554.791 450.023C554.539 446.963 554.182 443.931 553.751 440.9C553.337 437.873 552.752 434.872 551.998 431.911C551.271 428.94 550.126 426.089 548.595 423.441C547.801 422.135 546.842 420.937 545.742 419.875C544.623 418.831 543.35 417.964 541.968 417.305C543.38 417.922 544.689 418.754 545.846 419.771C546.989 420.808 547.988 421.992 548.818 423.293C550.427 425.934 551.652 428.791 552.458 431.777C554.039 437.731 555.098 443.811 555.623 449.949C556.247 456.071 556.673 462.203 556.901 468.344C557.129 474.486 557.278 480.627 557.347 486.769C557.481 492.905 557.525 499.042 557.54 505.179V523.588L557.377 541.998C557.317 548.15 557.213 554.286 557.109 560.423Z" fill="#374425"/>
<path d="M538.996 416.948C538.61 416.949 538.237 417.086 537.941 417.334C537.642 417.567 537.372 417.837 537.139 418.137C536.675 418.739 536.281 419.392 535.965 420.083C535.352 421.476 534.855 422.917 534.479 424.392C533.701 427.348 533.115 430.35 532.726 433.382C531.864 439.444 531.404 445.551 531.106 451.673C530.512 463.901 530.557 476.174 530.378 488.448C530.2 500.721 529.947 512.979 529.65 525.238L529.175 543.647C528.967 549.769 528.803 555.906 528.551 562.042C528.551 555.906 528.551 549.769 528.551 543.633L528.64 525.223C528.714 512.964 528.907 500.691 529.041 488.418L529.383 470.023C529.487 463.886 529.65 457.735 530.096 451.613C530.542 445.491 531.106 439.355 532.102 433.278C532.608 430.241 533.303 427.239 534.182 424.288C534.637 422.814 535.208 421.378 535.891 419.994C536.245 419.302 536.679 418.654 537.184 418.062C537.433 417.771 537.717 417.511 538.031 417.29C538.31 417.08 538.647 416.96 538.996 416.948Z" fill="#374425"/>
<path d="M520.958 560.423C520.779 554.286 520.69 548.15 520.586 541.998L520.423 523.588V505.178C520.423 499.047 520.487 492.91 520.616 486.769C520.745 480.627 520.893 474.485 521.062 468.344C521.29 462.212 521.711 456.081 522.325 449.949C522.867 443.82 523.941 437.75 525.534 431.807C526.334 428.818 527.56 425.961 529.175 423.322C530.004 422.021 531.003 420.837 532.146 419.801C533.307 418.787 534.614 417.955 536.024 417.334C534.645 417.997 533.372 418.864 532.25 419.905C531.154 420.97 530.196 422.168 529.397 423.471C527.872 426.119 526.731 428.971 526.01 431.94C525.248 434.9 524.663 437.901 524.256 440.93C523.811 443.901 523.484 447.007 523.216 450.053C522.949 453.099 522.726 456.175 522.577 459.236L522.399 463.812L522.295 468.418C522.146 474.54 522.042 480.672 521.983 486.813L521.597 523.633L521.329 542.043C521.225 548.15 521.121 554.286 520.958 560.423Z" fill="#374425"/>
<path d="M538.997 562.815C538.848 556.738 538.774 550.661 538.655 544.584L538.462 526.337C538.343 514.183 538.358 502.028 538.298 489.874C538.239 477.72 538.298 465.55 538.462 453.396L538.655 435.165C538.774 429.087 538.848 423.01 538.997 416.918C539.16 423.01 539.235 429.087 539.339 435.165L539.532 453.396C539.651 465.55 539.651 477.72 539.695 489.874C539.74 502.028 539.695 514.183 539.532 526.337L539.279 544.584C539.279 550.676 539.16 556.738 538.997 562.815Z" fill="#374425"/>
<path d="M497.273 457.913C497.903 458.421 498.467 459.005 498.952 459.652C499.424 460.313 499.818 461.026 500.126 461.777C500.721 463.288 501.135 464.864 501.36 466.472C501.777 469.673 501.921 472.904 501.79 476.13C501.544 482.556 500.954 488.964 500.022 495.327C499.524 498.473 499.187 501.642 499.012 504.822C498.795 507.96 499.03 511.112 499.71 514.183C500.066 515.691 500.695 517.122 501.568 518.403C501.987 519.034 502.486 519.609 503.053 520.112C503.631 520.629 504.27 521.073 504.955 521.434C506.359 522.149 507.861 522.65 509.413 522.92C510.899 523.217 512.563 523.41 514.168 523.574C512.558 523.578 510.95 523.479 509.353 523.276C507.731 523.089 506.148 522.653 504.658 521.984C503.138 521.284 501.815 520.217 500.81 518.878C499.815 517.541 499.079 516.029 498.64 514.421C497.832 511.248 497.506 507.972 497.675 504.703C497.822 501.48 498.135 498.266 498.611 495.075C499.076 491.915 499.482 488.745 499.829 485.565C500.201 482.4 500.498 479.206 500.691 476.026C500.921 472.855 500.921 469.672 500.691 466.502C500.569 464.922 500.264 463.361 499.785 461.851C499.278 460.355 498.417 459.003 497.273 457.913Z" fill="#374425"/>
<path d="M496.189 457.616C495.678 457.737 495.208 457.988 494.822 458.344C494.428 458.688 494.069 459.072 493.752 459.488C493.112 460.323 492.564 461.225 492.118 462.178C491.219 464.087 490.502 466.077 489.978 468.121C488.911 472.197 488.131 476.343 487.645 480.528C486.635 488.908 485.654 497.318 485.387 505.788C485.2 509.975 485.379 514.172 485.922 518.328C486.187 520.369 486.717 522.367 487.497 524.272C488.343 526.131 489.538 527.811 491.018 529.22C494.067 532.078 497.586 534.39 501.419 536.055C505.267 537.794 509.293 539.109 513.425 539.977C509.214 539.372 505.089 538.27 501.137 536.694C497.127 535.143 493.431 532.878 490.231 530.007C488.595 528.537 487.272 526.753 486.338 524.762C485.479 522.764 484.889 520.66 484.584 518.507C483.991 514.275 483.782 509.998 483.96 505.728C484.346 497.266 485.209 488.833 486.546 480.469C487.147 476.253 488.071 472.091 489.309 468.017C489.94 465.964 490.761 463.974 491.761 462.074C492.265 461.131 492.868 460.244 493.559 459.429C493.914 459.029 494.307 458.666 494.733 458.344C495.145 457.977 495.648 457.726 496.189 457.616Z" fill="#374425"/>
<path d="M577.911 425.967C576.769 427.084 575.912 428.461 575.415 429.979C574.935 431.489 574.631 433.05 574.508 434.63C574.271 437.8 574.271 440.984 574.508 444.154C574.702 447.334 574.999 450.514 575.355 453.693C575.712 456.873 576.128 460.038 576.574 463.203C577.063 466.393 577.381 469.607 577.525 472.831C577.696 476.102 577.365 479.379 576.544 482.549C576.108 484.155 575.377 485.667 574.39 487.007C573.888 487.676 573.304 488.281 572.651 488.804C572.003 489.323 571.294 489.762 570.541 490.112C569.051 490.78 567.468 491.216 565.846 491.405C564.249 491.607 562.641 491.707 561.032 491.702C562.622 491.538 564.226 491.345 565.786 491.048C567.336 490.77 568.838 490.27 570.244 489.562C570.93 489.201 571.569 488.757 572.146 488.24C572.71 487.734 573.209 487.16 573.632 486.531C574.499 485.249 575.124 483.819 575.474 482.311C576.161 479.241 576.397 476.088 576.173 472.95C576.003 469.77 575.67 466.601 575.177 463.456C574.24 457.093 573.645 450.685 573.394 444.258C573.271 441.033 573.415 437.802 573.825 434.6C574.06 432.992 574.479 431.417 575.073 429.905C575.378 429.152 575.772 428.439 576.247 427.78C576.728 427.112 577.287 426.504 577.911 425.967Z" fill="#374425"/>
<path d="M578.951 425.685C579.495 425.767 580.008 425.993 580.437 426.339C580.863 426.661 581.256 427.024 581.611 427.423C582.297 428.242 582.899 429.128 583.409 430.068C584.411 431.968 585.232 433.958 585.86 436.012C587.094 440.086 588.013 444.248 588.609 448.463C589.945 456.828 590.808 465.261 591.194 473.723C591.385 477.992 591.181 482.269 590.585 486.501C590.268 488.654 589.673 490.756 588.817 492.757C587.89 494.748 586.571 496.532 584.939 498.002C581.732 500.871 578.032 503.137 574.018 504.688C570.072 506.266 565.952 507.369 561.745 507.972C565.877 507.104 569.903 505.788 573.75 504.049C577.586 502.389 581.106 500.077 584.151 497.214C585.636 495.806 586.836 494.127 587.688 492.266C588.463 490.361 588.987 488.363 589.248 486.323C589.805 482.167 589.984 477.97 589.783 473.782C589.53 465.357 588.55 456.947 587.539 448.523C587.039 444.34 586.259 440.195 585.206 436.116C584.682 434.071 583.966 432.081 583.067 430.172C582.62 429.219 582.072 428.318 581.432 427.483C581.115 427.066 580.757 426.683 580.362 426.339C579.955 426.004 579.469 425.779 578.951 425.685Z" fill="#374425"/>
<path d="M520.958 434.555C521.688 435.441 522.344 436.385 522.919 437.379C523.231 437.869 523.484 438.374 523.766 438.864C524.049 439.355 524.286 439.86 524.539 440.35L523.38 440.202C523.737 439.771 524.108 439.34 524.494 438.924C524.881 438.508 525.252 438.077 525.668 437.691C526.467 436.864 527.331 436.103 528.254 435.417C527.76 436.459 527.173 437.453 526.5 438.389C526.188 438.864 525.846 439.31 525.505 439.771C525.163 440.231 524.806 440.662 524.45 441.093L523.751 441.94L523.276 440.959C523.038 440.439 522.8 439.934 522.578 439.474C522.355 439.013 522.132 438.419 521.939 437.884C521.519 436.804 521.191 435.69 520.958 434.555Z" fill="#374425"/>
<path d="M524.866 432.921C525.05 433.574 525.149 434.248 525.163 434.927C525.19 435.582 525.166 436.237 525.089 436.888C525.004 437.535 524.875 438.176 524.702 438.805C524.522 439.46 524.257 440.09 523.915 440.677C523.725 440.025 523.621 439.35 523.603 438.671C523.581 438.016 523.61 437.36 523.692 436.71C523.771 436.062 523.9 435.421 524.078 434.793C524.261 434.139 524.526 433.51 524.866 432.921Z" fill="#374425"/>
<path d="M545.594 531.047C546.418 531.843 547.178 532.702 547.867 533.618C548.224 534.064 548.551 534.539 548.877 534.985L549.828 536.471H548.655C548.952 535.995 549.279 535.535 549.606 535.074C549.932 534.613 550.274 534.153 550.631 533.707C551.335 532.796 552.11 531.941 552.949 531.151C552.562 532.234 552.095 533.287 551.552 534.301C551.299 534.821 550.987 535.297 550.72 535.787C550.453 536.278 550.126 536.768 549.828 537.273L549.234 538.194L548.64 537.258C548.343 536.783 548.045 536.292 547.763 535.772C547.481 535.252 547.198 534.792 546.946 534.287C546.407 533.246 545.955 532.162 545.594 531.047Z" fill="#374425"/>
<path d="M549.278 528.967C549.539 529.596 549.719 530.255 549.813 530.928C549.914 531.572 549.964 532.223 549.962 532.875C549.952 533.532 549.897 534.187 549.798 534.836C549.691 535.506 549.502 536.16 549.234 536.783C548.973 536.154 548.794 535.495 548.699 534.821C548.598 534.177 548.548 533.527 548.55 532.875C548.561 532.218 548.615 531.563 548.714 530.914C548.821 530.244 549.011 529.59 549.278 528.967Z" fill="#374425"/>
<path d="M547.139 412.342C547.539 413.418 547.847 414.527 548.06 415.655C548.179 416.22 548.253 416.77 548.357 417.334C548.461 417.899 548.521 418.449 548.58 419.013L547.525 418.493C548.015 418.211 548.506 417.929 549.011 417.661C549.516 417.394 550.007 417.126 550.497 416.889C551.53 416.375 552.603 415.948 553.706 415.611C552.885 416.418 552 417.158 551.062 417.825C550.601 418.166 550.125 418.464 549.665 418.79L548.179 419.697L547.228 420.261L547.124 419.177C547.124 418.612 547.005 418.047 546.975 417.483C546.946 416.918 546.901 416.339 546.901 415.774C546.892 414.626 546.971 413.478 547.139 412.342Z" fill="#374425"/>
<path d="M551.374 412.104C551.331 412.782 551.201 413.451 550.988 414.095C550.598 415.344 550.011 416.523 549.249 417.587C548.867 418.14 548.412 418.64 547.897 419.073C547.927 418.395 548.052 417.725 548.268 417.082C548.658 415.832 549.245 414.654 550.007 413.59C550.395 413.036 550.854 412.536 551.374 412.104Z" fill="#374425"/>
<path d="M598.713 471.375C598.687 472.521 598.578 473.663 598.386 474.792C598.297 475.357 598.178 475.907 598.074 476.471C597.97 477.036 597.822 477.571 597.688 478.121L596.885 477.259L598.565 477.006C599.129 477.006 599.694 476.858 600.258 476.828C601.405 476.731 602.559 476.731 603.706 476.828C602.654 477.295 601.566 477.672 600.452 477.957C599.902 478.121 599.337 478.225 598.787 478.373L597.123 478.7L596.039 478.893L596.321 477.839C596.469 477.289 596.618 476.739 596.796 476.204C596.975 475.669 597.123 475.119 597.331 474.584C597.705 473.479 598.167 472.406 598.713 471.375Z" fill="#374425"/>
<path d="M602.681 472.653C602.403 473.27 602.049 473.849 601.626 474.376C601.217 474.904 600.77 475.4 600.288 475.862C599.826 476.307 599.329 476.714 598.803 477.081C598.237 477.458 597.628 477.767 596.99 478.002C597.263 477.379 597.618 476.794 598.045 476.264C598.449 475.733 598.896 475.236 599.382 474.778C599.841 474.329 600.338 473.922 600.868 473.559C601.431 473.18 602.04 472.876 602.681 472.653Z" fill="#374425"/>
<path d="M571.15 459.652C572.147 460.223 573.096 460.874 573.988 461.598C574.434 461.94 574.865 462.326 575.296 462.683C575.727 463.039 576.143 463.441 576.559 463.827L575.415 464.109C575.593 463.574 575.786 463.039 575.994 462.519C576.202 461.999 576.425 461.464 576.663 460.944C577.128 459.912 577.675 458.918 578.297 457.973C578.185 459.115 577.986 460.248 577.703 461.36C577.569 461.925 577.406 462.46 577.257 463.01C577.109 463.56 576.916 464.094 576.737 464.629L576.381 465.669L575.593 464.912L574.39 463.708C574.003 463.292 573.602 462.891 573.231 462.445C572.462 461.572 571.767 460.638 571.15 459.652Z" fill="#374425"/>
<path d="M574.226 456.739C574.625 457.288 574.96 457.881 575.222 458.507C575.723 459.72 576.034 461.003 576.143 462.311C576.207 462.985 576.182 463.665 576.069 464.332C575.667 463.785 575.332 463.191 575.073 462.564C574.826 461.96 574.622 461.339 574.464 460.707C574.315 460.071 574.211 459.425 574.152 458.775C574.088 458.096 574.113 457.412 574.226 456.739Z" fill="#374425"/>
<path d="M573.736 420.989C574.726 421.555 575.674 422.191 576.574 422.891C577.02 423.233 577.436 423.619 577.881 423.976C578.327 424.333 578.728 424.734 579.144 425.12L577.985 425.402C578.179 424.868 578.372 424.333 578.58 423.813C578.788 423.293 578.996 422.758 579.248 422.238C579.717 421.207 580.263 420.213 580.883 419.266C580.771 420.409 580.572 421.541 580.288 422.654C580.155 423.218 579.991 423.753 579.843 424.303C579.694 424.853 579.501 425.388 579.323 425.923L578.966 426.963L578.179 426.205C577.763 425.804 577.361 425.417 576.96 425.001C576.559 424.585 576.188 424.184 575.816 423.738C575.045 422.883 574.349 421.964 573.736 420.989Z" fill="#374425"/>
<path d="M576.812 418.092C577.214 418.639 577.548 419.233 577.807 419.86C578.055 420.464 578.258 421.085 578.416 421.718C578.565 422.353 578.669 422.999 578.728 423.649C578.792 424.328 578.767 425.012 578.654 425.685C578.249 425.14 577.915 424.545 577.659 423.917C577.404 423.31 577.201 422.684 577.049 422.044C576.9 421.409 576.795 420.763 576.737 420.113C576.674 419.439 576.699 418.76 576.812 418.092Z" fill="#374425"/>
<path d="M551.7 449.251C552.582 449.984 553.402 450.789 554.152 451.658C554.538 452.074 554.895 452.52 555.251 452.95C555.608 453.381 555.965 453.842 556.306 454.288L555.133 454.377C555.4 453.872 555.682 453.376 555.979 452.891C556.292 452.416 556.574 451.925 556.901 451.405C557.541 450.443 558.256 449.534 559.04 448.686C558.739 449.796 558.346 450.88 557.867 451.925C557.644 452.46 557.376 452.95 557.138 453.411C556.901 453.872 556.618 454.421 556.351 454.897L555.816 455.863L555.177 454.971C554.84 454.525 554.513 454.065 554.196 453.589C553.884 453.114 553.558 452.653 553.275 452.104C552.672 451.198 552.145 450.244 551.7 449.251Z" fill="#374425"/>
<path d="M555.222 446.918C555.537 447.517 555.767 448.157 555.905 448.82C556.05 449.46 556.145 450.111 556.188 450.766C556.24 451.419 556.24 452.075 556.188 452.727C556.141 453.402 556.001 454.067 555.772 454.704C555.457 454.104 555.227 453.464 555.088 452.802C554.941 452.162 554.851 451.511 554.821 450.855C554.769 450.203 554.769 449.547 554.821 448.894C554.877 448.222 555.012 447.559 555.222 446.918Z" fill="#374425"/>
<path d="M509.398 462.341C510.546 462.437 511.683 462.626 512.801 462.906C513.35 463.025 513.9 463.188 514.435 463.337C514.97 463.485 515.52 463.663 516.069 463.842L515.148 464.585C515.089 464.02 515.044 463.456 515.015 462.891C515.015 462.311 514.94 461.747 515.015 461.182C514.983 460.035 515.047 458.886 515.208 457.75C515.591 458.829 515.889 459.937 516.099 461.063C516.218 461.628 516.292 462.193 516.381 462.742C516.471 463.292 516.53 463.872 516.604 464.436L516.708 465.521L515.683 465.164L514.078 464.585C513.558 464.377 513.023 464.184 512.503 463.931C511.424 463.493 510.384 462.961 509.398 462.341Z" fill="#374425"/>
<path d="M510.958 458.404C511.559 458.724 512.114 459.123 512.607 459.592C513.093 460.05 513.541 460.547 513.945 461.078C514.363 461.584 514.736 462.126 515.059 462.698C515.399 463.286 515.663 463.915 515.847 464.57C515.246 464.25 514.691 463.85 514.197 463.381C513.711 462.924 513.264 462.427 512.86 461.895C512.449 461.387 512.082 460.845 511.76 460.276C511.412 459.689 511.143 459.06 510.958 458.404Z" fill="#374425"/>
<path d="M474.614 487.289C475.757 487.39 476.89 487.584 478.002 487.868C478.566 487.987 479.101 488.15 479.651 488.299C480.201 488.448 480.735 488.626 481.27 488.804L480.364 489.532C480.364 488.968 480.245 488.403 480.215 487.838C480.186 487.274 480.215 486.709 480.215 486.144C480.189 484.992 480.259 483.839 480.423 482.697C480.805 483.782 481.103 484.895 481.315 486.026C481.434 486.59 481.508 487.14 481.597 487.705C481.686 488.269 481.746 488.834 481.805 489.399L481.924 490.483L480.884 490.127C480.349 489.948 479.814 489.755 479.294 489.547C478.774 489.339 478.239 489.131 477.719 488.893C476.642 488.444 475.603 487.908 474.614 487.289Z" fill="#374425"/>
<path d="M476.174 483.366C476.771 483.686 477.326 484.081 477.824 484.54C478.786 485.431 479.608 486.463 480.26 487.601C480.612 488.178 480.878 488.804 481.048 489.458C480.455 489.131 479.902 488.737 479.399 488.284C478.918 487.826 478.476 487.329 478.076 486.799C477.658 486.292 477.285 485.751 476.962 485.179C476.628 484.608 476.364 484 476.174 483.366Z" fill="#374425"/>
<path d="M535.326 472.296C536.155 473.092 536.92 473.952 537.614 474.867C537.986 475.313 538.298 475.773 538.64 476.234C538.981 476.695 539.279 477.17 539.591 477.72H538.417C538.714 477.244 539.026 476.769 539.368 476.234C539.709 475.699 540.021 475.298 540.378 474.867C541.073 473.948 541.844 473.088 542.681 472.296C542.303 473.385 541.841 474.443 541.299 475.461C541.047 475.966 540.75 476.442 540.482 476.947C540.215 477.452 539.888 477.913 539.591 478.433L538.996 479.369L538.417 478.433C538.105 477.958 537.808 477.482 537.525 476.947C537.243 476.412 536.961 475.966 536.708 475.461C536.157 474.448 535.695 473.389 535.326 472.296Z" fill="#374425"/>
<path d="M538.996 470.201C539.269 470.827 539.454 471.487 539.546 472.163C539.648 472.806 539.697 473.457 539.695 474.109C539.697 474.766 539.647 475.422 539.546 476.07C539.451 476.741 539.266 477.396 538.996 478.017C538.733 477.393 538.549 476.739 538.447 476.07C538.345 475.422 538.296 474.766 538.298 474.109C538.295 473.457 538.345 472.806 538.447 472.163C538.553 471.49 538.738 470.831 538.996 470.201Z" fill="#374425"/>
<path d="M496.857 537.303C497.978 537.062 499.116 536.908 500.26 536.842C500.84 536.842 501.404 536.842 501.969 536.768H503.618L502.964 537.748C502.741 537.228 502.519 536.708 502.325 536.173C502.132 535.639 501.924 535.104 501.776 534.569C501.399 533.481 501.121 532.363 500.944 531.226C501.639 532.161 502.25 533.155 502.771 534.197C503.053 534.688 503.291 535.208 503.544 535.683C503.796 536.159 504.019 536.708 504.242 537.169L504.688 538.179H503.588L501.894 538.09C501.33 538.09 500.765 538.016 500.201 537.942C499.071 537.82 497.953 537.606 496.857 537.303Z" fill="#374425"/>
<path d="M497.184 533.098C497.848 533.232 498.493 533.452 499.101 533.752C499.697 534.023 500.269 534.346 500.81 534.717C501.333 535.087 501.83 535.495 502.295 535.936C502.797 536.397 503.236 536.922 503.603 537.496C502.939 537.362 502.294 537.142 501.686 536.842C501.087 536.576 500.514 536.253 499.977 535.876C499.454 535.506 498.957 535.099 498.492 534.658C497.99 534.196 497.551 533.672 497.184 533.098Z" fill="#374425"/>
<path d="M497.273 477.393C498.111 478.184 498.881 479.044 499.577 479.963C499.933 480.394 500.26 480.87 500.587 481.33C500.914 481.791 501.241 482.266 501.538 482.727H500.364C500.676 482.252 500.988 481.791 501.315 481.33C501.642 480.87 501.969 480.394 502.34 479.963C503.035 479.048 503.8 478.188 504.628 477.393C504.264 478.48 503.807 479.534 503.261 480.543C503.009 481.063 502.712 481.538 502.429 482.029C502.147 482.519 501.85 482.995 501.553 483.515L500.958 484.451L500.364 483.515C500.067 483.039 499.77 482.564 499.487 482.029C499.205 481.494 498.908 481.048 498.655 480.543C498.111 479.531 497.649 478.478 497.273 477.393Z" fill="#374425"/>
<path d="M500.959 475.298C501.224 475.926 501.409 476.585 501.508 477.259C501.61 477.903 501.66 478.554 501.657 479.206C501.659 479.862 501.61 480.518 501.508 481.167C501.407 481.836 501.222 482.49 500.959 483.114C500.689 482.492 500.504 481.838 500.409 481.167C500.308 480.518 500.258 479.862 500.26 479.206C500.258 478.554 500.307 477.903 500.409 477.259C500.501 476.583 500.686 475.923 500.959 475.298Z" fill="#374425"/>
<path d="M579.917 495.387C580.035 496.532 580.065 497.684 580.006 498.834C580.006 499.399 579.932 499.963 579.902 500.528C579.872 501.092 579.783 501.657 579.709 502.222L578.817 501.464C579.352 501.3 579.902 501.137 580.452 501.003C581.002 500.87 581.551 500.721 582.116 500.617C583.237 500.379 584.375 500.225 585.519 500.156C584.53 500.734 583.497 501.231 582.428 501.642C581.908 501.865 581.358 502.043 580.838 502.237C580.318 502.43 579.753 502.608 579.219 502.771L578.164 503.098L578.327 502.014C578.401 501.449 578.476 500.884 578.58 500.335C578.684 499.785 578.788 499.205 578.921 498.656C579.17 497.542 579.503 496.45 579.917 495.387Z" fill="#374425"/>
<path d="M584.078 496.174C583.883 496.825 583.598 497.446 583.231 498.017C582.892 498.576 582.509 499.108 582.086 499.607C581.66 500.105 581.198 500.572 580.705 501.003C580.189 501.449 579.62 501.828 579.011 502.133C579.22 501.488 579.505 500.869 579.858 500.29C580.196 499.727 580.584 499.195 581.017 498.7C581.436 498.2 581.898 497.737 582.399 497.318C582.907 496.867 583.471 496.482 584.078 496.174Z" fill="#374425"/>
<path d="M525.148 512.92C525.977 513.71 526.742 514.565 527.436 515.476C527.808 515.921 528.12 516.397 528.461 516.843C528.803 517.288 529.1 517.779 529.412 518.254H528.239C528.536 517.779 528.863 517.303 529.189 516.843C529.516 516.382 529.843 515.921 530.2 515.476C530.895 514.561 531.666 513.706 532.503 512.92C532.124 514.004 531.662 515.057 531.121 516.07C530.869 516.59 530.571 517.065 530.304 517.556C530.036 518.046 529.71 518.522 529.412 519.042L528.818 519.963L528.239 519.042C527.927 518.566 527.629 518.091 527.347 517.556C527.065 517.021 526.782 516.575 526.53 516.07C525.982 515.06 525.52 514.007 525.148 512.92Z" fill="#374425"/>
<path d="M528.878 510.825C529.149 511.445 529.334 512.1 529.427 512.771C529.529 513.42 529.578 514.076 529.576 514.733C529.586 515.385 529.536 516.036 529.427 516.679C529.335 517.355 529.15 518.015 528.878 518.64C528.619 518.01 528.435 517.352 528.328 516.679C528.227 516.035 528.177 515.384 528.179 514.733C528.177 514.076 528.227 513.42 528.328 512.771C528.435 512.103 528.619 511.45 528.878 510.825Z" fill="#374425"/>
<path d="M480.958 509.072C481.796 509.863 482.566 510.723 483.262 511.642C483.618 512.073 483.945 512.548 484.287 512.994C484.629 513.44 484.926 513.93 485.238 514.406H484.049C484.361 513.93 484.673 513.455 485 512.994C485.327 512.534 485.654 512.073 486.025 511.627C486.72 510.717 487.485 509.862 488.314 509.072C487.946 510.158 487.489 511.211 486.947 512.222C486.694 512.742 486.397 513.217 486.114 513.707C485.832 514.198 485.535 514.673 485.238 515.193L484.643 516.129L484.049 515.193C483.752 514.718 483.455 514.242 483.172 513.707C482.89 513.173 482.593 512.727 482.34 512.222C481.799 511.209 481.337 510.156 480.958 509.072Z" fill="#374425"/>
<path d="M484.644 506.917C484.907 507.541 485.092 508.194 485.194 508.863C485.295 509.512 485.344 510.168 485.342 510.825C485.344 511.477 485.295 512.127 485.194 512.771C485.101 513.447 484.916 514.107 484.644 514.733C484.371 514.107 484.186 513.447 484.094 512.771C483.993 512.127 483.943 511.477 483.945 510.825C483.943 510.168 483.993 509.512 484.094 508.863C484.196 508.194 484.381 507.541 484.644 506.917Z" fill="#374425"/>
<path d="M486.115 469.652C486.115 469.652 472.742 469.652 474.406 463.901C474.971 461.895 480.35 462.861 483.425 466.086C481.182 462.207 481.717 456.799 483.797 456.814C489.755 456.843 486.115 469.652 486.115 469.652Z" fill="#37474F"/>
<path opacity="0.2" d="M486.115 469.652C486.115 469.652 472.742 469.652 474.406 463.901C474.971 461.895 480.35 462.861 483.425 466.086C481.182 462.207 481.717 456.799 483.797 456.814C489.755 456.843 486.115 469.652 486.115 469.652Z" fill="black"/>
<path d="M486.115 469.652C481.003 473.515 473.678 471.717 473.306 468.805C472.876 465.506 481.583 467.482 481.583 467.482C481.583 467.482 474.064 461.078 477.615 458.389C481.167 455.699 485.268 464.704 485.268 464.704C485.268 464.704 485.758 455.788 488.819 457.096C491.508 458.255 491.226 465.788 486.115 469.652Z" fill="#37474F"/>
<path d="M587.629 435.076C587.629 435.076 580.616 423.768 586.351 422.089C588.342 421.51 590.348 426.547 589.248 430.915C591.358 426.963 596.232 424.571 597.317 426.339C600.437 431.42 587.629 435.076 587.629 435.076Z" fill="#37474F"/>
<path opacity="0.2" d="M587.629 435.076C587.629 435.076 580.616 423.768 586.351 422.089C588.342 421.51 590.348 426.547 589.248 430.915C591.358 426.963 596.232 424.571 597.317 426.339C600.437 431.42 587.629 435.076 587.629 435.076Z" fill="black"/>
<path d="M587.629 435.076C581.685 432.758 579.323 425.596 581.596 423.739C584.181 421.643 587.094 430.083 587.094 430.083C587.094 430.083 588.58 420.321 592.725 421.926C596.871 423.53 591.388 431.747 591.388 431.747C591.388 431.747 599.233 427.453 599.724 430.752C600.199 433.649 593.617 437.379 587.629 435.076Z" fill="#37474F"/>
<path d="M499.235 560.26H571.418L564.152 620.615H506.501L499.235 560.26Z" fill="#37474F"/>
<path opacity="0.1" d="M499.235 560.26L500.869 573.87L570.185 570.542L571.418 560.26H499.235Z" fill="black"/>
<path d="M575.95 552.637H494.688V563.424H575.95V552.637Z" fill="#37474F"/>
<path d="M386.443 236.326C386.521 236.729 386.45 237.146 386.242 237.499C386.034 237.852 385.704 238.116 385.314 238.243C383.412 238.629 381.124 239.045 378.568 239.536C370.47 224.41 362.298 212.612 364.646 217.322C368.224 224.737 370.673 232.645 371.911 240.784C368.94 241.334 362.016 242.537 358.539 243.146C349.742 215.821 340.337 195.926 341.555 202.27C346.503 227.887 346.013 236.445 345.344 245.479C313.057 251.081 270.665 257.946 239.848 262.255C234.35 247.233 229.135 230.873 228.734 232.107C225.628 241.393 226.089 254.216 227.248 263.993C217.441 265.301 209.596 266.162 204.767 266.445C204.767 266.445 200.844 253.726 199.982 249.476C197.722 238.606 197.501 227.411 199.329 216.46C201.23 205.198 205.658 194.915 209.73 184.425C209.752 184.341 209.787 184.261 209.834 184.187C209.834 184.187 209.834 184.187 209.834 184.098C212.594 177.276 214.53 170.147 215.599 162.865C215.609 162.811 215.609 162.756 215.599 162.702C216.262 157.46 216.456 152.169 216.178 146.892C215.212 127.576 223.905 109.746 241.23 102.406C271.125 66.1951 306.786 75.348 320.129 98.5423C321.422 100.816 322.715 103.431 324.022 106.299V106.388C328.881 116.997 333.784 130.934 338.049 141.647C338.049 141.647 338.049 141.647 338.049 141.766C339.668 145.978 341.554 150.082 343.695 154.054C354.928 173.014 375.938 181.869 386.443 236.326Z" fill="#263238"/>
<path d="M234.098 108.676C223.087 116.298 216.995 126.194 216.921 140.369C216.921 148.631 217.337 156.64 215.168 164.708C212.954 173.029 208.66 180.161 204.232 187.323C197.204 198.675 192.687 209.611 193.103 223.518C193.534 237.589 196.268 253.904 202.582 266.281C202.582 266.356 202.731 266.281 202.686 266.281C197.233 253.607 194.856 235.42 195.465 221.349C196.134 205.881 203.504 195.287 210.829 182.716C216.71 172.865 219.816 161.605 219.818 150.131C219.818 143.118 218.823 135.956 220.784 129.121C223.117 120.949 229.105 115.184 235.108 109.983C235.253 109.841 235.341 109.65 235.355 109.447C235.369 109.243 235.308 109.042 235.183 108.881C235.059 108.72 234.879 108.61 234.679 108.572C234.479 108.535 234.272 108.571 234.098 108.676Z" fill="#263238"/>
<path d="M366.295 173.029C356.622 163.252 346.8 155.109 340.248 142.286C334.304 130.592 330.114 117.977 324.052 106.313C324.048 106.288 324.039 106.264 324.024 106.243C324.009 106.222 323.99 106.205 323.967 106.193C323.945 106.181 323.92 106.174 323.894 106.173C323.869 106.173 323.843 106.178 323.82 106.189C323.797 106.2 323.777 106.216 323.761 106.236C323.745 106.257 323.735 106.28 323.73 106.305C323.725 106.33 323.726 106.356 323.733 106.381C323.74 106.406 323.752 106.428 323.769 106.447C333.457 127.249 337.558 149.032 353.873 165.54C362.788 174.455 371.525 182.731 378.048 193.994C384.717 205.827 389.069 218.822 390.871 232.285C390.945 232.775 391.555 232.656 391.54 232.196C390.85 210.004 381.838 188.883 366.295 173.029Z" fill="#263238"/>
<path d="M241.007 100.623C245.539 98.2601 246.728 71.1431 227.634 60.6826C208.883 50.3856 188.051 67.473 200.146 88.0522C207.932 101.054 231.423 105.63 241.007 100.623Z" fill="#263238"/>
<path d="M203.103 62.1685C198.475 67.1251 195.667 73.5058 195.138 80.2663C194.829 83.4183 195.353 86.5963 196.656 89.4827C197.96 92.3691 199.998 94.8629 202.568 96.7148C207.709 100.608 214.351 102.331 220.977 103.015C224.343 103.319 227.73 103.319 231.096 103.015C234.519 102.848 237.881 102.042 241.007 100.637C238.147 102.726 234.867 104.166 231.393 104.857C227.93 105.656 224.383 106.04 220.829 106.001C213.509 106.122 206.334 103.95 200.309 99.7905C197.222 97.5907 194.822 94.5612 193.386 91.0532C191.95 87.5451 191.538 83.702 192.196 79.9691C192.709 76.4165 193.94 73.0057 195.815 69.9451C197.691 66.8845 200.17 64.2384 203.103 62.1685Z" fill="#263238"/>
<path d="M322.789 255.643C384.378 301.556 468.849 405.016 459.86 429.994C449.845 457.794 364.007 393.352 363.62 388.88C363.323 385.507 326.652 320.426 299.149 273.206C271.645 225.985 307.559 244.291 322.789 255.643Z" fill="#BC7D5C"/>
<path d="M363.13 389.043C359.742 382 310.278 296.34 295.716 269.09C281.155 241.839 289.208 231.497 322.343 253.503C355.478 275.509 432.46 353.873 454.124 398.419C475.001 441.346 451.791 444.897 418.018 428.79C390.277 415.566 363.13 389.043 363.13 389.043Z" fill="#A8B794"/>
<path d="M318.837 254.632C318.837 255.978 318.437 257.294 317.69 258.413C316.942 259.532 315.879 260.404 314.636 260.919C313.392 261.434 312.024 261.569 310.704 261.307C309.384 261.044 308.171 260.396 307.219 259.444C306.268 258.492 305.619 257.28 305.357 255.96C305.094 254.64 305.229 253.271 305.744 252.028C306.259 250.784 307.131 249.722 308.251 248.974C309.37 248.226 310.685 247.827 312.031 247.827C312.465 247.828 312.897 247.868 313.324 247.946C314.572 248.614 315.835 249.432 317.172 250.204C318.245 251.43 318.836 253.003 318.837 254.632ZM360.782 324.913C359.436 324.913 358.12 325.313 357 326.061C355.881 326.81 355.008 327.874 354.494 329.118C353.979 330.362 353.845 331.731 354.109 333.052C354.373 334.372 355.023 335.585 355.976 336.536C356.929 337.487 358.143 338.134 359.464 338.395C360.785 338.656 362.154 338.519 363.397 338.002C364.64 337.484 365.702 336.61 366.448 335.489C367.194 334.368 367.591 333.05 367.588 331.704C367.584 329.902 366.865 328.174 365.589 326.901C364.313 325.628 362.585 324.913 360.782 324.913ZM403.219 329.222C402.901 330.011 402.74 330.854 402.743 331.704C402.743 333.506 403.458 335.235 404.731 336.511C406.004 337.786 407.731 338.505 409.534 338.509C410.09 338.509 410.644 338.439 411.183 338.301C408.588 335.26 405.933 332.254 403.219 329.282V329.222ZM336.355 287.351C335.009 287.351 333.693 287.75 332.574 288.498C331.455 289.246 330.583 290.308 330.068 291.552C329.553 292.795 329.418 294.164 329.68 295.484C329.943 296.804 330.591 298.016 331.543 298.968C332.495 299.92 333.707 300.568 335.027 300.831C336.347 301.093 337.716 300.958 338.959 300.443C340.203 299.928 341.265 299.056 342.013 297.937C342.761 296.818 343.16 295.502 343.16 294.156C343.16 292.361 342.451 290.64 341.188 289.365C339.925 288.09 338.209 287.367 336.414 287.351H336.355ZM409.474 402C408.128 402 406.811 402.4 405.692 403.148C404.572 403.896 403.7 404.96 403.186 406.204C402.671 407.449 402.537 408.818 402.801 410.138C403.065 411.459 403.714 412.671 404.667 413.623C405.621 414.574 406.835 415.221 408.156 415.482C409.477 415.742 410.846 415.606 412.089 415.088C413.332 414.571 414.394 413.696 415.14 412.575C415.886 411.454 416.282 410.137 416.279 408.79C416.279 406.997 415.57 405.277 414.306 404.005C413.043 402.732 411.327 402.012 409.534 402H409.474ZM455.893 402.431C454.396 402.98 453.141 404.039 452.346 405.421C451.551 406.803 451.268 408.42 451.547 409.99C451.825 411.56 452.646 412.982 453.867 414.006C455.088 415.031 456.631 415.594 458.225 415.596C459.017 415.597 459.802 415.456 460.543 415.18C459.358 410.813 457.823 406.55 455.952 402.431H455.893ZM385.106 364.437C383.76 364.437 382.444 364.837 381.325 365.584C380.206 366.332 379.334 367.395 378.819 368.638C378.304 369.882 378.169 371.25 378.432 372.57C378.694 373.89 379.342 375.103 380.294 376.055C381.246 377.006 382.458 377.655 383.778 377.917C385.099 378.18 386.467 378.045 387.71 377.53C388.954 377.015 390.017 376.143 390.764 375.023C391.512 373.904 391.911 372.589 391.911 371.243C391.911 369.448 391.203 367.726 389.939 366.452C388.676 365.177 386.96 364.453 385.165 364.437H385.106ZM432.401 364.586C431.298 364.828 430.273 365.34 429.417 366.077C428.562 366.814 427.903 367.752 427.5 368.806C427.098 369.861 426.964 370.999 427.111 372.119C427.258 373.238 427.681 374.304 428.342 375.219C429.003 376.134 429.882 376.87 430.898 377.361C431.915 377.852 433.038 378.083 434.165 378.032C435.293 377.981 436.391 377.65 437.359 377.069C438.327 376.488 439.136 375.676 439.711 374.705C437.483 371.406 435.031 368.018 432.46 364.586H432.401Z" fill="white"/>
<path opacity="0.1" d="M460.929 430.558C456.606 441.271 439.414 438.968 417.943 428.745C390.291 415.566 363.13 389.043 363.13 389.043C359.727 382 310.278 296.34 295.716 269.09C285.315 249.625 286.43 238.793 299.996 242.181L460.929 430.558Z" fill="black"/>
<path d="M419.311 620.615H276.906C270.71 596.306 261.185 558.892 252.879 526.307C252.885 526.283 252.885 526.257 252.879 526.233C252.374 524.242 251.854 522.251 251.393 520.289C251.066 519.071 250.769 517.868 250.472 516.694C242.478 485.357 236.178 460.588 236.03 460.023C235.881 459.458 235.866 459.399 235.822 459.191C235.773 459.035 235.733 458.876 235.703 458.715H373.16L419.311 620.615Z" fill="#566443"/>
<path d="M368.717 458.671C368.717 458.76 368.717 458.923 368.717 459.146C368.717 460.766 368.717 462.371 368.717 463.99C368.717 468.106 368.464 472.237 368.197 476.353C367.114 492.453 365.01 508.468 361.897 524.301C357.877 545.18 352.547 565.785 345.938 585.994C345.359 587.748 345.017 588.728 344.973 588.832L334.007 594.256L333.13 594.702C325.983 598.238 317.172 602.621 311.422 605.489C308.361 606.975 306.162 608.104 305.553 608.461L305.374 608.55C305.374 608.55 305.137 613.438 304.825 620.585H156.253C159.225 595.4 159.626 592.086 159.626 592.086C158.749 587.228 154.871 574.687 156.253 560.155C159.314 528.165 178.927 463.946 180.71 460.127C181.127 459.191 181.364 458.641 181.364 458.641H218.927H307.93H368.717V458.671Z" fill="#566443"/>
<path d="M305.479 608.163V608.49C305.479 612.532 305.36 616.588 305.3 620.615H303.814C304.141 616.573 304.409 612.487 304.884 608.431C304.884 608.059 304.959 607.718 305.003 607.346C305.016 607.295 305.046 607.25 305.088 607.217C305.129 607.185 305.181 607.167 305.233 607.167C305.286 607.167 305.338 607.185 305.379 607.217C305.421 607.25 305.451 607.295 305.464 607.346C305.464 607.629 305.479 607.896 305.479 608.163Z" fill="#263238"/>
<path d="M287.663 615.949C293.978 611.581 300.798 607.896 307.485 604.063C314.171 600.229 321.259 596.499 328.376 593.186C342.269 586.708 356.949 582.042 371.57 577.495C371.941 577.391 372.179 577.986 371.822 578.149C357.736 584.197 344.081 591.136 330.07 597.346C323.027 600.467 315.924 603.468 308.866 606.574C301.809 609.679 294.929 613.201 287.827 616.172C287.799 616.174 287.772 616.169 287.747 616.158C287.722 616.146 287.7 616.128 287.684 616.106C287.667 616.084 287.657 616.058 287.653 616.03C287.65 616.003 287.653 615.975 287.663 615.949Z" fill="#263238"/>
<path d="M326.207 547.02C326.385 540.111 326.875 533.202 327.217 526.308C328.019 509.963 328.703 493.619 330.189 477.393C330.189 477.259 330.242 477.13 330.337 477.036C330.431 476.941 330.56 476.888 330.694 476.888C330.828 476.888 330.956 476.941 331.051 477.036C331.146 477.13 331.199 477.259 331.199 477.393C331.407 489.993 330.917 502.653 330.664 515.223C330.53 521.538 330.352 527.838 330.174 534.138C329.83 540.155 329.79 546.185 330.055 552.206C330.397 556.753 331.392 565.579 337.321 566.129C342.908 566.649 345.969 560.616 347.365 556.203C350.902 544.985 352.165 532.86 353.309 521.196C353.992 514.287 354.676 507.407 355.077 500.468C355.478 493.529 356.043 483.158 355.671 476.174C355.671 475.729 356.295 475.744 356.37 476.174C357.469 482.118 357.514 494.317 357.365 501.434C355.998 565.713 345.864 569.383 340.501 570.423C339.844 570.55 339.178 570.62 338.509 570.631C338.509 572.117 338.257 573.603 338.153 574.999C337.989 577.287 337.707 579.561 337.395 581.834C337.078 584.062 336.612 586.266 335.998 588.431C335.523 590.629 334.743 592.75 333.68 594.731C333.643 594.798 333.584 594.85 333.514 594.879C333.443 594.908 333.365 594.913 333.291 594.892C333.218 594.872 333.153 594.827 333.108 594.766C333.063 594.704 333.039 594.629 333.042 594.553C332.989 592.371 333.169 590.189 333.576 588.045C333.888 585.816 334.2 583.588 334.661 581.388C335.122 579.189 335.493 577.065 335.939 574.91C336.236 573.424 336.444 571.938 336.712 570.452C334.982 570.149 333.355 569.421 331.975 568.335C330.596 567.248 329.507 565.837 328.807 564.227C326.266 559.056 326.058 552.786 326.207 547.02Z" fill="#263238"/>
<path d="M196.401 534.821C205.316 535.445 214.232 536.604 223.236 535.535C231.702 534.66 239.768 531.49 246.564 526.367C261.423 514.896 267.842 496.115 271.824 478.492C271.837 478.41 271.884 478.336 271.952 478.287C272.02 478.238 272.105 478.219 272.188 478.232C272.27 478.246 272.344 478.292 272.393 478.361C272.442 478.429 272.462 478.514 272.448 478.596C270.769 493.871 267.485 509.666 257.589 521.969C253.342 527.374 247.974 531.795 241.854 534.925C235.347 537.953 228.225 539.423 221.052 539.22C212.676 539.123 204.345 537.98 196.253 535.817C196.147 535.772 196.059 535.693 196.003 535.592C195.946 535.492 195.925 535.376 195.942 535.262C195.959 535.148 196.014 535.043 196.097 534.963C196.18 534.884 196.287 534.834 196.401 534.821Z" fill="#263238"/>
<path d="M392.179 531.255C389.682 530.973 387.231 531.181 384.749 529.339C382.268 527.496 380.054 524.183 378.063 518.73C373.754 506.843 371.629 489.012 370.218 472.549C370.218 472.177 370.025 472.192 370.039 472.549C370.767 486.665 371.941 501.419 374.898 513.603C375.919 518.222 377.465 522.708 379.504 526.976C381.347 530.512 383.397 532.206 385.448 532.919C386.582 533.287 387.78 533.416 388.966 533.298C390.153 533.181 391.302 532.819 392.342 532.236C392.446 532.132 392.402 531.359 392.179 531.255Z" fill="#263238"/>
<path d="M194.812 463.114C189.983 489.517 184.277 516.293 179.002 542.637C177.65 550.512 175.302 558.283 175.778 566.307C176.457 574.394 177.733 582.42 179.596 590.318C178.749 595.4 177.917 600.482 177.011 605.563C176.105 610.645 175.258 615.608 174.292 620.615C174.752 615.533 175.332 610.467 175.882 605.4C176.431 600.333 177.026 595.266 177.62 590.199C175.409 582.428 173.917 574.47 173.163 566.426C172.892 563.64 172.957 560.831 173.356 558.06C174.96 547.243 177.219 536.694 179.478 526.099C184.084 504.956 189.15 483.916 194.886 463.054L194.812 463.114Z" fill="#263238"/>
<path d="M375.299 460.751L365.136 396.785C365.136 396.785 385.091 371.718 372.001 344.259C365.389 330.337 325.761 261.348 301.734 244.32C279.194 228.332 242.894 239.863 232.879 257.173C207.62 300.843 193.192 352.788 178.586 460.736L375.299 460.751Z" fill="#A8B794"/>
<path d="M270.085 254.632C270.085 255.978 269.686 257.294 268.938 258.413C268.191 259.532 267.128 260.404 265.884 260.919C264.641 261.434 263.273 261.569 261.952 261.307C260.632 261.044 259.42 260.396 258.468 259.444C257.516 258.492 256.868 257.28 256.606 255.96C256.343 254.64 256.478 253.271 256.993 252.028C257.508 250.784 258.38 249.722 259.499 248.974C260.618 248.226 261.934 247.827 263.28 247.827C265.085 247.827 266.816 248.544 268.092 249.82C269.368 251.096 270.085 252.827 270.085 254.632ZM307.767 249.342C307.047 249.932 306.456 250.663 306.031 251.49C305.605 252.317 305.354 253.223 305.293 254.152C305.232 255.08 305.363 256.011 305.677 256.887C305.99 257.762 306.481 258.564 307.117 259.243C307.754 259.921 308.523 260.461 309.377 260.83C310.231 261.199 311.152 261.388 312.082 261.387C313.012 261.385 313.932 261.192 314.785 260.82C315.638 260.448 316.405 259.904 317.039 259.223C314.132 255.761 311.037 252.463 307.767 249.342ZM214.529 324.913C213.182 324.913 211.866 325.313 210.747 326.061C209.627 326.81 208.755 327.874 208.24 329.118C207.726 330.362 207.592 331.731 207.856 333.052C208.119 334.372 208.769 335.585 209.722 336.536C210.675 337.487 211.889 338.134 213.21 338.395C214.532 338.656 215.9 338.519 217.144 338.002C218.387 337.484 219.449 336.61 220.195 335.489C220.941 334.368 221.337 333.05 221.334 331.704C221.33 329.902 220.612 328.174 219.336 326.901C218.06 325.628 216.331 324.913 214.529 324.913ZM263.28 324.913C261.934 324.913 260.617 325.313 259.498 326.061C258.378 326.81 257.506 327.874 256.991 329.118C256.477 330.362 256.343 331.731 256.607 333.052C256.871 334.372 257.52 335.585 258.473 336.536C259.427 337.487 260.641 338.134 261.962 338.395C263.283 338.656 264.651 338.519 265.895 338.002C267.138 337.484 268.2 336.61 268.946 335.489C269.692 334.368 270.088 333.05 270.085 331.704C270.085 330.811 269.909 329.927 269.567 329.102C269.225 328.277 268.723 327.528 268.091 326.897C267.459 326.266 266.709 325.766 265.883 325.426C265.058 325.086 264.173 324.912 263.28 324.913ZM312.031 324.913C310.685 324.913 309.368 325.313 308.249 326.061C307.129 326.81 306.257 327.874 305.743 329.118C305.228 330.362 305.094 331.731 305.358 333.052C305.622 334.372 306.271 335.585 307.224 336.536C308.178 337.487 309.392 338.134 310.713 338.395C312.034 338.656 313.403 338.519 314.646 338.002C315.889 337.484 316.951 336.61 317.697 335.489C318.443 334.368 318.839 333.05 318.837 331.704C318.833 329.902 318.114 328.174 316.838 326.901C315.562 325.628 313.834 324.913 312.031 324.913ZM361.481 324.913H360.782C359.562 324.911 358.364 325.237 357.313 325.856C356.262 326.476 355.397 327.367 354.809 328.435C354.22 329.504 353.929 330.711 353.967 331.93C354.005 333.15 354.37 334.337 355.024 335.367C355.678 336.396 356.597 337.232 357.685 337.785C358.772 338.338 359.988 338.588 361.206 338.51C362.423 338.432 363.597 338.028 364.605 337.34C365.613 336.652 366.417 335.706 366.934 334.601C365.433 331.748 363.546 328.494 361.481 324.943V324.913ZM238.912 287.321C237.565 287.318 236.248 287.715 235.127 288.461C234.006 289.207 233.131 290.269 232.614 291.512C232.097 292.755 231.96 294.124 232.221 295.445C232.482 296.766 233.129 297.98 234.08 298.933C235.031 299.886 236.243 300.536 237.564 300.8C238.884 301.064 240.254 300.93 241.498 300.415C242.742 299.9 243.806 299.028 244.554 297.909C245.303 296.789 245.702 295.473 245.702 294.126C245.695 292.329 244.976 290.608 243.704 289.339C242.432 288.069 240.709 287.355 238.912 287.351V287.321ZM287.663 287.321C286.317 287.318 284.999 287.715 283.878 288.461C282.757 289.207 281.883 290.269 281.365 291.512C280.848 292.755 280.711 294.124 280.972 295.445C281.233 296.766 281.88 297.98 282.831 298.933C283.782 299.886 284.995 300.536 286.315 300.8C287.636 301.064 289.005 300.93 290.249 300.415C291.493 299.9 292.557 299.028 293.306 297.909C294.054 296.789 294.453 295.473 294.453 294.126C294.446 292.329 293.727 290.608 292.455 289.339C291.183 288.069 289.46 287.355 287.663 287.351V287.321ZM338.182 287.559C337.607 287.397 337.012 287.317 336.414 287.321C335.11 287.321 333.833 287.695 332.736 288.399C331.638 289.103 330.766 290.108 330.223 291.294C329.68 292.48 329.49 293.797 329.674 295.088C329.858 296.379 330.41 297.59 331.263 298.577C332.116 299.564 333.234 300.284 334.485 300.653C335.736 301.023 337.067 301.024 338.319 300.659C339.571 300.293 340.691 299.576 341.547 298.591C342.402 297.607 342.957 296.398 343.145 295.107C341.526 292.581 339.861 290.07 338.182 287.589V287.559ZM214.529 401.97C213.182 401.97 211.866 402.37 210.747 403.118C209.627 403.867 208.755 404.93 208.24 406.175C207.726 407.419 207.592 408.788 207.856 410.109C208.119 411.429 208.769 412.642 209.722 413.593C210.675 414.544 211.889 415.191 213.21 415.452C214.532 415.713 215.9 415.576 217.144 415.059C218.387 414.541 219.449 413.667 220.195 412.546C220.941 411.424 221.337 410.107 221.334 408.761C221.326 406.962 220.605 405.241 219.33 403.973C218.054 402.706 216.327 401.996 214.529 402V401.97ZM263.28 401.97C261.934 401.97 260.617 402.37 259.498 403.118C258.378 403.867 257.506 404.93 256.991 406.175C256.477 407.419 256.343 408.788 256.607 410.109C256.871 411.429 257.52 412.642 258.473 413.593C259.427 414.544 260.641 415.191 261.962 415.452C263.283 415.713 264.651 415.576 265.895 415.059C267.138 414.541 268.2 413.667 268.946 412.546C269.692 411.424 270.088 410.107 270.085 408.761C270.083 407.87 269.906 406.988 269.563 406.165C269.219 405.343 268.717 404.597 268.085 403.969C267.453 403.341 266.703 402.844 265.879 402.506C265.054 402.168 264.171 401.996 263.28 402V401.97ZM312.031 401.97C310.685 401.97 309.368 402.37 308.249 403.118C307.129 403.867 306.257 404.93 305.743 406.175C305.228 407.419 305.094 408.788 305.358 410.109C305.622 411.429 306.271 412.642 307.224 413.593C308.178 414.544 309.392 415.191 310.713 415.452C312.034 415.713 313.403 415.576 314.646 415.059C315.889 414.541 316.951 413.667 317.697 412.546C318.443 411.424 318.839 410.107 318.837 408.761C318.829 406.962 318.108 405.241 316.832 403.973C315.556 402.706 313.83 401.996 312.031 402V401.97ZM360.782 401.97C359.436 401.97 358.12 402.37 357 403.118C355.881 403.867 355.008 404.93 354.494 406.175C353.979 407.419 353.845 408.788 354.109 410.109C354.373 411.429 355.022 412.642 355.976 413.593C356.929 414.544 358.143 415.191 359.464 415.452C360.785 415.713 362.154 415.576 363.397 415.059C364.64 414.541 365.702 413.667 366.448 412.546C367.194 411.424 367.591 410.107 367.588 408.761C367.58 406.962 366.859 405.241 365.583 403.973C364.307 402.706 362.581 401.996 360.782 402V401.97ZM194.366 365.864C193.534 369.727 192.731 373.694 191.929 377.751C193.141 377.418 194.236 376.757 195.095 375.84C195.954 374.923 196.542 373.786 196.794 372.555C197.047 371.324 196.953 370.048 196.525 368.867C196.096 367.686 195.349 366.646 194.366 365.864ZM238.942 364.378C237.595 364.375 236.278 364.772 235.157 365.518C234.036 366.264 233.161 367.325 232.644 368.569C232.127 369.812 231.99 371.181 232.251 372.502C232.511 373.823 233.158 375.037 234.11 375.99C235.061 376.943 236.273 377.593 237.594 377.857C238.914 378.12 240.283 377.986 241.528 377.472C242.772 376.957 243.836 376.085 244.584 374.966C245.333 373.846 245.732 372.53 245.732 371.183C245.716 369.386 244.99 367.668 243.713 366.404C242.435 365.141 240.709 364.433 238.912 364.437L238.942 364.378ZM287.693 364.378C286.346 364.375 285.029 364.772 283.908 365.518C282.787 366.264 281.912 367.325 281.395 368.569C280.878 369.812 280.741 371.181 281.002 372.502C281.263 373.823 281.91 375.037 282.861 375.99C283.812 376.943 285.024 377.593 286.345 377.857C287.665 378.12 289.034 377.986 290.279 377.472C291.523 376.957 292.587 376.085 293.335 374.966C294.084 373.846 294.483 372.53 294.483 371.183C294.468 369.386 293.742 367.668 292.464 366.404C291.186 365.141 289.46 364.433 287.663 364.437L287.693 364.378ZM336.444 364.378C335.098 364.378 333.782 364.777 332.663 365.525C331.544 366.273 330.672 367.335 330.157 368.579C329.642 369.822 329.507 371.191 329.77 372.511C330.032 373.831 330.68 375.044 331.632 375.995C332.584 376.947 333.796 377.595 335.116 377.858C336.436 378.12 337.805 377.986 339.048 377.47C340.292 376.955 341.355 376.083 342.102 374.964C342.85 373.845 343.249 372.529 343.249 371.183C343.234 369.384 342.506 367.663 341.225 366.399C339.944 365.135 338.214 364.429 336.414 364.437L336.444 364.378ZM190.101 441.524C188.755 441.521 187.438 441.918 186.317 442.664C185.195 443.41 184.321 444.471 183.804 445.715C183.286 446.958 183.149 448.327 183.41 449.648C183.671 450.969 184.318 452.183 185.269 453.136C186.22 454.089 187.433 454.739 188.753 455.003C190.074 455.266 191.443 455.133 192.687 454.618C193.932 454.103 194.995 453.231 195.744 452.112C196.492 450.992 196.892 449.676 196.892 448.329C196.892 446.527 196.177 444.798 194.904 443.522C193.631 442.247 191.904 441.528 190.101 441.524ZM238.853 441.524C237.506 441.521 236.189 441.918 235.068 442.664C233.947 443.41 233.072 444.471 232.555 445.715C232.037 446.958 231.9 448.327 232.161 449.648C232.422 450.969 233.069 452.183 234.02 453.136C234.971 454.089 236.184 454.739 237.505 455.003C238.825 455.266 240.194 455.133 241.438 454.618C242.683 454.103 243.747 453.231 244.495 452.112C245.243 450.992 245.643 449.676 245.643 448.329C245.643 446.537 244.936 444.817 243.676 443.543C242.416 442.269 240.704 441.544 238.912 441.524H238.853ZM287.604 441.524C286.257 441.521 284.94 441.918 283.819 442.664C282.698 443.41 281.823 444.471 281.306 445.715C280.789 446.958 280.652 448.327 280.913 449.648C281.173 450.969 281.82 452.183 282.772 453.136C283.723 454.089 284.935 454.739 286.256 455.003C287.576 455.266 288.945 455.133 290.19 454.618C291.434 454.103 292.498 453.231 293.246 452.112C293.995 450.992 294.394 449.676 294.394 448.329C294.394 446.537 293.687 444.817 292.427 443.543C291.167 442.269 289.455 441.544 287.663 441.524H287.604ZM336.355 441.524C335.009 441.524 333.693 441.923 332.574 442.671C331.455 443.419 330.583 444.481 330.068 445.725C329.553 446.968 329.418 448.337 329.68 449.657C329.943 450.977 330.591 452.19 331.543 453.141C332.495 454.093 333.707 454.741 335.027 455.004C336.347 455.266 337.716 455.132 338.959 454.616C340.203 454.101 341.265 453.229 342.013 452.11C342.761 450.991 343.16 449.675 343.16 448.329C343.16 446.535 342.451 444.813 341.188 443.538C339.924 442.264 338.209 441.54 336.414 441.524H336.355Z" fill="white"/>
<path d="M332.001 380.663C321.778 381.777 311.651 383.649 301.705 386.265C296.772 387.632 291.942 389.237 287.128 390.916C284.721 391.763 282.299 392.52 279.877 393.278C277.346 394.132 274.723 394.681 272.062 394.913C272.014 394.913 271.969 394.931 271.936 394.965C271.902 394.998 271.883 395.044 271.883 395.091C271.883 395.138 271.902 395.183 271.936 395.217C271.969 395.25 272.014 395.269 272.062 395.269C274.581 395.339 277.103 395.244 279.61 394.987C282.027 394.647 284.419 394.151 286.772 393.501C291.779 392.164 296.727 390.529 301.719 389.192C311.794 386.399 321.868 383.59 332.135 381.525C332.249 381.507 332.352 381.445 332.42 381.351C332.488 381.258 332.517 381.141 332.499 381.027C332.481 380.913 332.419 380.81 332.326 380.742C332.232 380.674 332.116 380.645 332.001 380.663Z" fill="#263238"/>
<path d="M357.499 389.222C349.044 388.509 340.557 388.27 332.076 388.508C327.826 388.642 323.621 389.029 319.401 389.519C317.42 389.757 315.439 390.024 313.458 390.321C311.244 390.648 309.074 391.272 306.875 391.569C306.638 391.569 306.653 391.956 306.875 391.941C308.956 391.718 311.095 391.852 313.205 391.762L319.535 391.465C323.77 391.272 327.99 391.138 332.224 390.916C340.679 390.455 349.104 390.083 357.573 389.92C358.004 389.92 358.004 389.266 357.499 389.222Z" fill="#263238"/>
<path d="M252.508 245.405C253.696 249.283 275.108 280.055 295.88 274.662C304.602 272.403 295.88 238.674 295.88 238.674L301.378 202.449L254.662 177.189C254.662 177.189 252.002 243.741 252.508 245.405Z" fill="#BC7D5C"/>
<path d="M301.333 202.449L295.984 237.604C277.769 231.828 262.565 219.106 253.667 202.196C254.172 188.645 254.617 177.159 254.617 177.159L301.333 202.449Z" fill="#263238"/>
<path d="M341.035 140.578C359.341 197.709 327.187 215.138 314.869 219.061C303.68 222.642 265.137 233.384 241.022 178.452C216.906 123.52 237.649 96.9674 262.908 87.4431C288.168 77.9187 322.729 83.4758 341.035 140.578Z" fill="#BC7D5C"/>
<path d="M327.885 133.044C326.507 133.163 325.123 133.208 323.74 133.178C322.288 133.426 320.795 133.191 319.49 132.509C319.123 132.215 318.865 131.807 318.755 131.35C318.644 130.893 318.689 130.412 318.881 129.983C319.385 129.187 320.093 128.539 320.932 128.108C321.771 127.677 322.709 127.478 323.651 127.532C325.57 127.346 327.491 127.875 329.044 129.017C329.392 129.298 329.65 129.676 329.785 130.102C329.919 130.529 329.925 130.986 329.801 131.415C329.678 131.845 329.43 132.229 329.089 132.519C328.748 132.809 328.33 132.991 327.885 133.044Z" fill="#263238"/>
<path d="M287.663 148.512C288.874 147.847 290.119 147.247 291.393 146.714C292.617 145.89 294.081 145.498 295.553 145.6C296.007 145.723 296.409 145.992 296.696 146.365C296.983 146.738 297.14 147.194 297.143 147.665C297.002 148.596 296.615 149.472 296.022 150.204C295.429 150.935 294.652 151.495 293.77 151.825C292.084 152.78 290.1 153.067 288.213 152.628C287.792 152.504 287.415 152.26 287.129 151.926C286.844 151.593 286.661 151.184 286.603 150.748C286.544 150.313 286.614 149.87 286.802 149.473C286.99 149.076 287.289 148.742 287.663 148.512Z" fill="#263238"/>
<path d="M300.59 158.749C300.516 158.616 300.337 159.017 300.382 159.18C301.571 163.088 302.269 167.769 299.06 170.042C298.956 170.042 299.06 170.31 299.149 170.25C303.339 168.467 302.343 162.271 300.59 158.749Z" fill="#263238"/>
<path d="M295.954 155.585C289.476 156.818 292.418 169.671 298.421 168.527C304.424 167.382 301.378 154.559 295.954 155.585Z" fill="#263238"/>
<path d="M293.592 156.833C292.626 157.828 291.823 159.359 290.501 159.804C289.179 160.25 287.529 159.24 286.162 158.185C286.029 158.066 285.939 158.185 285.969 158.378C286.504 160.844 288.02 163.162 290.754 162.925C293.235 162.702 294.468 160.131 294.513 157.516C294.528 157.026 293.978 156.446 293.592 156.833Z" fill="#263238"/>
<path d="M323.591 151.692C323.591 151.543 323.933 151.811 323.963 151.989C324.721 156.001 326.266 160.473 330.159 161.008C330.278 161.008 330.307 161.216 330.159 161.231C325.627 161.588 323.651 155.629 323.591 151.692Z" fill="#263238"/>
<path d="M326.221 146.744C332.536 144.842 335.879 157.605 330.025 159.359C324.171 161.112 320.946 148.334 326.221 146.744Z" fill="#263238"/>
<path d="M329.104 146.892C330.292 147.308 331.615 148.274 332.833 148.036C334.052 147.799 334.928 146.105 335.478 144.559C335.478 144.396 335.656 144.47 335.701 144.649C336.414 147.071 336.266 149.819 334.052 150.889C331.838 151.959 329.906 150.206 328.688 147.918C328.465 147.501 328.628 146.729 329.104 146.892Z" fill="#263238"/>
<path d="M306.697 189.804C307.826 190.577 309.03 191.691 310.501 191.558C311.992 191.252 313.404 190.64 314.646 189.76C314.673 189.747 314.702 189.741 314.731 189.745C314.76 189.749 314.787 189.761 314.81 189.78C314.832 189.799 314.848 189.824 314.856 189.852C314.864 189.88 314.863 189.91 314.854 189.938C314.422 190.832 313.756 191.592 312.927 192.139C312.098 192.686 311.136 192.998 310.144 193.043C309.287 192.98 308.468 192.664 307.791 192.135C307.114 191.606 306.609 190.888 306.34 190.072C306.236 189.834 306.534 189.685 306.697 189.804Z" fill="#263238"/>
<path d="M309.104 184.47C315.315 180.859 318.777 181.038 322.893 180.265C323.309 180.057 324.2 179.418 324.141 178.987C324.141 178.839 321.303 170.949 321.303 170.949C322.536 171.142 328.732 171.855 328.182 170.354C323.413 157.977 318.093 144.203 310.709 132.881C310.656 132.811 310.581 132.762 310.497 132.742C310.412 132.722 310.323 132.733 310.245 132.771C310.168 132.81 310.106 132.875 310.071 132.955C310.036 133.035 310.03 133.124 310.055 133.208C314.171 145.288 320.456 156.565 324.735 168.645C322.513 168.36 320.262 168.39 318.049 168.735C317.677 168.987 321.481 177.085 321.763 178.437C321.763 178.437 315.27 177.873 308.391 183.935C306.875 185.257 306.845 185.777 309.104 184.47Z" fill="#263238"/>
<path d="M248.749 183.459C259.967 181.81 255.836 156.209 255.836 156.209C255.836 156.209 299.847 135.525 293.295 96.7741C293.295 96.7741 307.886 118.542 335.092 122.658C335.092 122.658 322.002 81.8709 287.084 82.9704C287.084 82.9704 242.419 79.4935 228.571 118.022C214.722 156.55 241.215 184.574 248.749 183.459Z" fill="#263238"/>
<path d="M292.626 94.0105C294.786 99.6628 295.714 105.712 295.345 111.752C295.088 117.865 293.57 123.86 290.888 129.359C290.224 130.732 289.475 132.062 288.644 133.341L287.47 135.303C287.024 135.927 286.549 136.521 286.073 137.115C285.107 138.304 284.201 139.522 283.191 140.652C282.18 141.781 281.021 142.776 279.907 143.817C279.357 144.322 278.822 144.872 278.243 145.302L276.43 146.655L272.805 149.344C270.234 150.83 267.589 152.316 264.944 153.668C267.277 151.781 269.759 150.146 272.017 148.259L275.331 145.288L276.98 143.802C277.485 143.282 277.961 142.717 278.466 142.167C279.432 141.083 280.412 139.998 281.437 138.943C282.463 137.888 283.161 136.61 284.023 135.451L285.316 133.698L286.4 131.826C287.171 130.602 287.866 129.332 288.48 128.022C291.039 122.809 292.683 117.195 293.339 111.425C293.696 108.517 293.815 105.585 293.696 102.658C293.582 99.7508 293.224 96.8581 292.626 94.0105Z" fill="#263238"/>
<path d="M256.341 175.867C256.341 175.867 239.432 160.518 232.181 166.952C224.93 173.385 240.546 197.679 251.096 199.091C252.437 199.365 253.82 199.364 255.161 199.09C256.502 198.815 257.773 198.272 258.899 197.494C260.025 196.715 260.981 195.716 261.711 194.558C262.441 193.4 262.929 192.107 263.146 190.755L256.341 175.867Z" fill="#BC7D5C"/>
<path d="M236.832 173.801C236.802 173.811 236.776 173.83 236.758 173.855C236.739 173.881 236.729 173.911 236.729 173.942C236.729 173.974 236.739 174.004 236.758 174.03C236.776 174.055 236.802 174.074 236.832 174.084C244.261 175.287 249.313 180.8 253.325 186.788C250.725 184.722 247.634 183.965 244.811 187.144C244.662 187.308 244.9 187.56 245.078 187.471C246.19 186.819 247.476 186.526 248.761 186.632C250.045 186.739 251.266 187.239 252.255 188.066C253.901 189.471 255.395 191.044 256.713 192.761C257.173 193.296 258.198 192.761 257.797 192.077L257.708 191.929C255.895 183.192 246.371 172.553 236.832 173.801Z" fill="#263238"/>
<path d="M247.084 243.488C247.084 243.488 264.35 281.393 269.535 285.568C274.721 289.743 316.34 284.632 317.083 281.111C317.826 277.589 297.083 243.28 297.083 243.28C297.083 243.28 281.006 236.49 267.559 236.832C253.651 237.159 247.084 243.488 247.084 243.488Z" fill="#BC7D5C"/>
<path d="M456.621 429.4C444.927 447.081 421.955 454.317 339.936 472.564C328.599 475.075 281.452 404.526 292.255 398.375C306.623 390.173 369.059 377.186 373.516 376.8C411.213 373.442 464.555 417.424 456.621 429.4Z" fill="#BC7D5C"/>
<path d="M302.061 394.437C302.061 394.437 267.544 407.394 251.542 419.83C230.086 436.457 218.407 459.652 214.113 469.681C205.123 490.587 197.768 547.347 213.83 552.295C228.303 556.753 232.805 498.373 232.805 498.373C232.805 498.373 218.377 557.169 236.802 559.293C255.226 561.418 256.579 493.395 256.579 493.395C256.579 493.395 243.117 554.123 262.522 553.38C277.143 552.815 281.838 491.211 281.838 491.211C281.838 491.211 270.635 543.499 285.687 543.558C302.328 543.632 310.248 487.095 310.248 487.095C348.568 480.825 364.244 462.163 373.813 447.557C376.087 444.05 302.061 394.437 302.061 394.437Z" fill="#BC7D5C"/>
<path d="M236.475 477.72C234.528 484.57 232.508 491.479 231.185 498.522C229.863 505.565 228.778 512.563 228.095 519.651C226.46 537.02 228.095 548.164 228.095 547.466C227.411 530.928 231.78 505.862 233.102 498.819C234.424 491.776 235.405 484.792 236.727 477.809C236.772 477.586 236.519 477.556 236.475 477.72Z" fill="#263238"/>
<path d="M261.809 482.058C259.714 490.974 257.351 499.606 255.583 508.551C253.815 517.496 253.042 526.04 251.958 535.044C251.868 535.728 252.27 535.549 252.374 534.851C253.86 525.936 255.851 517.764 257.396 508.834C258.941 499.904 260.16 491.003 262.032 482.088C262.062 481.954 261.839 481.925 261.809 482.058Z" fill="#263238"/>
<path d="M284.231 481.88C280.323 495.253 278.882 509.294 277.797 523.113C277.797 523.811 278.243 523.514 278.332 522.816C280.219 509.056 281.586 498.254 284.691 482.014C284.751 481.761 284.305 481.598 284.231 481.88Z" fill="#263238"/>
<path d="M302.759 389.43L377.87 468.953C377.87 468.953 450.454 450.335 460.736 431.331C467.512 418.82 411.212 370.411 369.861 377.35L302.759 389.43Z" fill="#A8B794"/>
<path d="M318.019 405.551L315.612 403.025C316.625 403.638 317.456 404.51 318.019 405.551ZM360.783 402C359.436 402 358.12 402.4 357 403.148C355.881 403.896 355.009 404.96 354.494 406.204C353.979 407.449 353.845 408.818 354.109 410.138C354.373 411.459 355.023 412.671 355.976 413.623C356.929 414.574 358.143 415.221 359.464 415.482C360.785 415.743 362.154 415.606 363.397 415.088C364.64 414.571 365.702 413.696 366.448 412.575C367.194 411.454 367.591 410.137 367.588 408.79C367.588 407.897 367.412 407.013 367.069 406.188C366.727 405.364 366.226 404.614 365.594 403.984C364.962 403.353 364.211 402.853 363.386 402.513C362.56 402.172 361.675 401.998 360.783 402ZM409.534 402C408.187 402 406.871 402.4 405.751 403.148C404.632 403.896 403.76 404.96 403.245 406.204C402.73 407.449 402.597 408.818 402.86 410.138C403.124 411.459 403.774 412.671 404.727 413.623C405.68 414.574 406.894 415.221 408.215 415.482C409.536 415.743 410.905 415.606 412.148 415.088C413.391 414.571 414.453 413.696 415.199 412.575C415.945 411.454 416.342 410.137 416.339 408.79C416.339 407.897 416.163 407.013 415.821 406.188C415.478 405.364 414.977 404.614 414.345 403.984C413.713 403.353 412.962 402.853 412.137 402.513C411.311 402.172 410.427 401.998 409.534 402ZM381.124 376.74C382.291 377.612 383.709 378.081 385.166 378.078C386.134 378.077 387.092 377.869 387.974 377.468C385.706 377.093 383.419 376.841 381.124 376.711V376.74ZM385.166 441.554C383.82 441.554 382.504 441.953 381.385 442.701C380.266 443.448 379.393 444.511 378.878 445.755C378.363 446.998 378.228 448.367 378.491 449.687C378.754 451.007 379.402 452.219 380.353 453.171C381.305 454.123 382.518 454.771 383.838 455.033C385.158 455.296 386.526 455.161 387.77 454.646C389.013 454.131 390.076 453.259 390.824 452.14C391.572 451.021 391.971 449.705 391.971 448.359C391.975 447.463 391.802 446.575 391.461 445.746C391.121 444.916 390.62 444.163 389.988 443.528C389.356 442.893 388.604 442.389 387.777 442.045C386.949 441.701 386.062 441.524 385.166 441.524V441.554ZM433.917 441.554C432.671 441.554 431.45 441.895 430.385 442.542C429.32 443.188 428.453 444.114 427.879 445.219C427.304 446.324 427.044 447.565 427.126 448.808C427.208 450.051 427.63 451.247 428.345 452.267C432.579 450.513 436.695 448.656 440.514 446.739C440.162 445.254 439.32 443.931 438.122 442.984C436.925 442.038 435.443 441.523 433.917 441.524V441.554Z" fill="white"/>
<path d="M397.261 454.941C389.564 445.863 381.392 437.215 373.175 428.567C364.958 419.92 356.83 411.272 348.346 402.832C343.591 398.077 338.866 393.278 333.933 388.672C333.799 388.553 333.577 388.672 333.695 388.88C341.377 397.944 349.535 406.71 357.662 415.328C365.79 423.946 374.007 432.639 382.387 441.167C387.097 445.997 391.882 450.722 396.815 455.328C397.053 455.58 397.498 455.209 397.261 454.941Z" fill="#263238"/>
<path d="M304.884 391.688L301.794 389.385L301.437 389.118C310.828 386.458 320.293 384.036 329.832 381.971C346.31 378.598 363.026 374.972 379.92 375.091C392.067 375.935 403.84 379.648 414.273 385.923C403.444 380.971 391.758 378.166 379.861 377.662C372.746 377.853 365.652 378.528 358.628 379.683C342.165 382.045 318.614 386.518 302.002 389.445L302.091 389.043L304.884 391.688Z" fill="#263238"/>
<path d="M226.148 301.155C231.646 390.306 254.291 458.552 291.764 458.032C316.667 457.69 299.357 384.229 299.075 382.639C291.655 348.828 279.757 316.158 263.696 285.494C236.505 234.053 223.697 261.319 226.148 301.155Z" fill="#BC7D5C"/>
<path d="M226.148 301.155C231.646 390.306 254.291 458.552 291.764 458.032C316.667 457.69 310.635 394.437 310.337 392.862C309.327 387.454 288.421 332.254 263.696 285.494C236.505 234.053 223.697 261.319 226.148 301.155Z" fill="#A8B794"/>
<path d="M270.085 331.704C270.088 333.05 269.692 334.368 268.946 335.489C268.2 336.61 267.138 337.484 265.895 338.002C264.651 338.519 263.283 338.656 261.961 338.395C260.64 338.134 259.426 337.487 258.473 336.536C257.52 335.585 256.87 334.372 256.607 333.052C256.343 331.731 256.477 330.362 256.991 329.118C257.506 327.874 258.378 326.81 259.498 326.061C260.617 325.313 261.933 324.913 263.28 324.913C265.082 324.913 266.811 325.628 268.087 326.901C269.363 328.174 270.081 329.902 270.085 331.704ZM238.882 287.351C237.536 287.348 236.218 287.745 235.097 288.491C233.976 289.236 233.102 290.298 232.584 291.542C232.067 292.785 231.93 294.154 232.191 295.475C232.452 296.796 233.099 298.01 234.05 298.963C235.001 299.916 236.214 300.566 237.534 300.829C238.855 301.093 240.224 300.959 241.468 300.445C242.712 299.93 243.776 299.058 244.525 297.938C245.273 296.819 245.673 295.503 245.673 294.156C245.673 292.359 244.962 290.635 243.695 289.36C242.428 288.085 240.709 287.363 238.912 287.351H238.882ZM263.25 402C261.904 402 260.587 402.399 259.468 403.148C258.348 403.896 257.476 404.96 256.962 406.204C256.447 407.449 256.313 408.818 256.577 410.138C256.841 411.459 257.49 412.671 258.444 413.623C259.397 414.574 260.611 415.221 261.932 415.482C263.253 415.742 264.622 415.606 265.865 415.088C267.108 414.571 268.17 413.696 268.916 412.575C269.662 411.454 270.058 410.137 270.056 408.79C270.057 407.899 269.884 407.017 269.544 406.193C269.204 405.369 268.706 404.62 268.076 403.99C267.447 403.359 266.699 402.859 265.876 402.517C265.053 402.176 264.171 402 263.28 402H263.25ZM310.961 402.089C309.343 402.334 307.868 403.155 306.807 404.401C305.745 405.647 305.17 407.234 305.186 408.871C305.203 410.507 305.809 412.083 306.895 413.308C307.981 414.532 309.472 415.324 311.095 415.536C311.258 410.529 311.169 405.863 310.991 402.089H310.961ZM238.882 364.437C237.974 364.438 237.076 364.62 236.239 364.972C235.402 365.324 234.644 365.84 234.009 366.488C234.742 370.262 235.509 373.947 236.312 377.543C237.127 377.878 238 378.05 238.882 378.048C240.687 378.048 242.418 377.331 243.694 376.055C244.97 374.778 245.687 373.048 245.687 371.243C245.687 369.438 244.97 367.707 243.694 366.431C242.418 365.154 240.687 364.437 238.882 364.437ZM287.633 364.437C286.287 364.434 284.97 364.831 283.848 365.577C282.727 366.323 281.853 367.385 281.335 368.628C280.818 369.871 280.681 371.24 280.942 372.561C281.203 373.882 281.85 375.096 282.801 376.049C283.752 377.003 284.965 377.652 286.285 377.916C287.606 378.18 288.975 378.046 290.219 377.531C291.464 377.017 292.527 376.144 293.276 375.025C294.024 373.906 294.424 372.589 294.424 371.243C294.424 369.445 293.713 367.721 292.446 366.446C291.18 365.171 289.46 364.449 287.663 364.437H287.633ZM287.633 441.524C286.287 441.521 284.97 441.918 283.848 442.664C282.727 443.41 281.853 444.471 281.335 445.715C280.818 446.958 280.681 448.327 280.942 449.648C281.203 450.969 281.85 452.183 282.801 453.136C283.752 454.089 284.965 454.739 286.285 455.003C287.606 455.266 288.975 455.133 290.219 454.618C291.464 454.103 292.527 453.231 293.276 452.112C294.024 450.992 294.424 449.676 294.424 448.329C294.424 446.532 293.713 444.808 292.446 443.533C291.18 442.258 289.46 441.536 287.663 441.524H287.633Z" fill="white"/>
<path d="M266.757 291.437C274.781 307.113 282.195 323.086 289.461 339.118C296.46 355.27 303.77 371.362 308.971 388.152C296.207 356.027 280.294 323.338 266.757 291.437Z" fill="#263238"/>
<path d="M271.898 294.854C274.082 299.312 275.776 304.364 275.107 309.357C274.246 304.527 272.611 299.743 271.898 294.854Z" fill="#263238"/>
<path d="M305.196 452.713C328.168 446.843 361.288 390.559 379.668 328.093C383.174 316.206 289.862 278.614 287.544 291.675C280.249 333.576 263.384 389.088 267.292 421.955C270.338 447.497 289.298 456.769 305.196 452.713Z" fill="#BC7D5C"/>
<path d="M326.801 244.157C320.471 237.783 317.722 218.481 311.526 207.545C305.33 196.609 289.966 192.687 287.752 197.144C285.539 201.602 289.833 205.45 292.879 224.098C294.825 236.104 287.946 261.125 294.023 282.641C297.084 293.488 333.146 250.531 326.801 244.157Z" fill="#F7A9A0"/>
<path d="M326.801 244.157C320.471 237.783 317.722 218.481 311.526 207.545C305.33 196.609 289.966 192.687 287.752 197.144C285.539 201.602 289.833 205.45 292.879 224.098C294.825 236.104 287.946 261.125 294.023 282.641C297.084 293.488 333.146 250.531 326.801 244.157Z" fill="#BC7D5C"/>
<path opacity="0.06" d="M326.801 244.157C320.471 237.783 317.722 218.481 311.526 207.545C305.33 196.609 289.966 192.687 287.752 197.144C285.539 201.602 289.833 205.45 292.879 224.098C294.825 236.104 287.946 261.125 294.023 282.641C297.084 293.488 333.146 250.531 326.801 244.157Z" fill="black"/>
<path d="M365.195 180.904C373.843 187.516 355.701 207.441 355.701 207.441C360.147 205.927 364.983 206.016 369.371 207.694C376.948 211.007 375.091 224.35 375.091 224.35C380.027 223.733 385.035 224.618 389.459 226.891C396.398 230.799 396.428 244.528 396.428 244.528C401.275 246.474 405.262 250.097 407.661 254.736C413.605 267.381 400.618 284.454 394.705 296.697C388.36 309.743 380.396 325.954 375.715 334.066L286.563 299.134C286.563 299.134 294.78 232.76 305.226 220.532C314.052 210.22 352.06 170.77 365.195 180.904Z" fill="#BC7D5C"/>
<path d="M355.329 207.441C343.338 216.148 333.457 227.723 324.052 238.986C323.844 239.239 324.245 239.566 324.453 239.313C333.68 227.991 346.147 218.882 355.805 207.946C356.072 207.649 355.641 207.204 355.329 207.441Z" fill="#263238"/>
<path d="M373.977 223.979C371.44 226.221 369.212 228.789 367.35 231.616C365.196 234.469 363.1 237.367 361.035 240.294C356.919 246.163 352.922 252.181 349.148 258.124C348.97 258.406 349.341 258.718 349.534 258.451C353.65 252.611 357.855 246.846 362.224 241.185C364.413 238.342 366.617 235.529 368.836 232.745C371.107 230.234 373.1 227.484 374.779 224.544C374.809 224.44 374.805 224.33 374.769 224.228C374.733 224.127 374.666 224.039 374.578 223.977C374.49 223.915 374.385 223.882 374.277 223.882C374.17 223.883 374.065 223.916 373.977 223.979Z" fill="#263238"/>
<path d="M396.25 244.766C393.872 246.46 392.268 249.58 390.663 251.958C388.835 254.677 386.993 257.366 385.15 260.056C381.436 265.449 377.721 270.813 373.843 276.073C373.65 276.326 374.036 276.653 374.244 276.385C378.211 271.081 382.268 265.821 386.205 260.472C388.137 257.837 390.054 255.202 391.956 252.567C393.575 250.323 395.849 247.693 396.532 244.944C396.533 244.911 396.526 244.877 396.51 244.847C396.494 244.817 396.471 244.792 396.442 244.774C396.414 244.756 396.381 244.746 396.347 244.744C396.313 244.743 396.28 244.75 396.25 244.766Z" fill="#263238"/>
<path d="M345.299 184.648C334.898 192.256 325.612 201.364 316.266 210.205C312.763 213.495 309.435 216.967 306.296 220.606C303.477 224.454 301.281 228.721 299.787 233.251C298.614 236.222 297.663 239.343 296.727 242.448C298.212 234.558 300.01 226.104 304.869 219.492C307.935 215.671 311.256 212.062 314.81 208.689C324.26 199.863 333.933 190.859 345.299 184.618V184.648Z" fill="#263238"/>
<path d="M271.601 317.187L362.848 382.773C362.848 382.773 325.82 458.091 305.196 458.686C284.572 459.28 261.036 448.196 257.871 398.776C257.069 386.443 271.601 317.187 271.601 317.187Z" fill="#A8B794"/>
<path d="M270.085 331.704C270.087 332.713 269.863 333.71 269.431 334.622C269 335.535 268.37 336.34 267.589 336.979C268.198 333.888 268.778 331.035 269.283 328.494C269.807 329.483 270.082 330.585 270.085 331.704ZM263.28 402C262.348 401.998 261.425 402.19 260.571 402.563C259.717 402.937 258.949 403.484 258.317 404.169C258.674 407.884 259.179 411.361 259.803 414.57C260.854 415.215 262.063 415.554 263.295 415.551C264.214 415.594 265.133 415.45 265.995 415.128C266.857 414.806 267.645 414.312 268.311 413.676C268.977 413.041 269.507 412.277 269.869 411.431C270.231 410.585 270.418 409.674 270.418 408.753C270.418 407.833 270.231 406.922 269.869 406.076C269.507 405.229 268.977 404.466 268.311 403.83C267.645 403.195 266.857 402.701 265.995 402.379C265.133 402.056 264.214 401.912 263.295 401.955L263.28 402ZM312.031 402C310.685 402 309.368 402.399 308.249 403.148C307.13 403.896 306.257 404.96 305.743 406.204C305.228 407.449 305.094 408.818 305.358 410.138C305.622 411.459 306.271 412.671 307.225 413.623C308.178 414.574 309.392 415.221 310.713 415.482C312.034 415.742 313.403 415.606 314.646 415.088C315.889 414.571 316.951 413.696 317.697 412.575C318.443 411.454 318.84 410.137 318.837 408.79C318.837 407.897 318.66 407.013 318.318 406.188C317.976 405.364 317.475 404.614 316.842 403.984C316.21 403.353 315.46 402.853 314.634 402.513C313.809 402.172 312.924 401.998 312.031 402ZM287.663 364.437C286.317 364.434 284.999 364.831 283.878 365.577C282.757 366.323 281.883 367.385 281.365 368.628C280.848 369.871 280.711 371.24 280.972 372.561C281.233 373.882 281.88 375.096 282.831 376.049C283.782 377.003 284.995 377.652 286.315 377.916C287.636 378.18 289.005 378.046 290.249 377.531C291.493 377.017 292.557 376.144 293.306 375.025C294.054 373.906 294.454 372.589 294.454 371.243C294.454 369.44 293.739 367.712 292.466 366.436C291.193 365.16 289.465 364.441 287.663 364.437ZM342.477 368.167L337.395 364.512C337.068 364.49 336.741 364.49 336.414 364.512C335.068 364.512 333.753 364.911 332.634 365.659C331.514 366.406 330.642 367.469 330.127 368.713C329.612 369.956 329.477 371.324 329.74 372.645C330.002 373.965 330.651 375.177 331.602 376.129C332.554 377.081 333.767 377.729 335.087 377.991C336.407 378.254 337.775 378.119 339.019 377.604C340.262 377.089 341.325 376.217 342.073 375.098C342.82 373.979 343.22 372.663 343.22 371.317C343.232 370.222 342.977 369.141 342.477 368.167ZM287.663 441.524C286.317 441.521 284.999 441.918 283.878 442.664C282.757 443.41 281.883 444.471 281.365 445.715C280.848 446.958 280.711 448.327 280.972 449.648C281.233 450.969 281.88 452.183 282.831 453.136C283.782 454.089 284.995 454.739 286.315 455.003C287.636 455.266 289.005 455.132 290.249 454.618C291.493 454.103 292.557 453.231 293.306 452.112C294.054 450.992 294.454 449.676 294.454 448.329C294.454 446.527 293.739 444.798 292.466 443.522C291.193 442.247 289.465 441.528 287.663 441.524Z" fill="white"/>
<path d="M273.652 347.811C278.109 350.782 282.299 354.259 286.564 357.543C290.828 360.827 295.063 364.17 299.253 367.558C307.633 374.323 315.959 381.158 324.23 388.063C326.489 389.965 328.688 391.852 330.961 393.798C333.235 395.745 335.419 398.256 337.856 400.276C337.886 400.31 337.903 400.354 337.904 400.4C337.905 400.445 337.89 400.489 337.862 400.525C337.833 400.56 337.793 400.585 337.749 400.594C337.704 400.603 337.658 400.595 337.618 400.574C335.523 398.954 333.16 397.602 331.08 396.027C329 394.452 326.712 392.698 324.557 390.99C320.337 387.652 316.132 384.289 311.942 380.901C303.547 374.155 295.197 367.335 287.039 360.307C282.433 356.339 277.663 352.461 273.295 348.227C273.268 348.203 273.245 348.175 273.229 348.143C273.213 348.11 273.203 348.076 273.2 348.04C273.197 348.004 273.202 347.968 273.213 347.933C273.224 347.899 273.242 347.868 273.265 347.84C273.289 347.813 273.317 347.791 273.349 347.774C273.381 347.758 273.416 347.748 273.452 347.745C273.488 347.743 273.524 347.747 273.558 347.758C273.593 347.769 273.624 347.787 273.652 347.811Z" fill="#263238"/>
<path d="M281.943 324.617L271.438 317.395L271.898 317.217C268.926 335.047 265.553 352.878 262.463 370.708C260.99 378.424 259.909 386.21 259.224 394.036C258.938 404.168 259.891 414.298 262.062 424.199C258.68 414.487 256.903 404.29 256.802 394.006C257.53 376.934 261.349 360.173 264.796 343.487C266.777 334.503 268.991 325.558 271.438 316.652L271.779 316.905L281.943 324.587V324.617Z" fill="#263238"/>
<path d="M360.114 380.797L362.893 382.758C357.885 393.545 352.343 404.065 346.399 414.377C337.083 429.488 327.9 445.58 313.339 456.442C308.376 460.171 301.779 460.9 295.687 461.018C289.554 461.221 283.456 460.021 277.857 457.512C261.022 449.444 252.597 431.257 246.654 414.6C238.957 392.045 234.321 368.702 229.967 345.344C227.961 333.65 226.015 321.957 224.514 310.188C226.684 321.838 228.897 333.487 231.394 345.062C236.282 368.182 241.512 391.376 249.224 413.694C255.078 429.622 263.221 447.051 279.09 454.941C284.314 457.315 290.01 458.468 295.746 458.314C301.393 458.121 307.232 457.794 312.002 454.287C326.207 443.797 335.776 428.3 345.196 413.59C351.451 403.724 357.38 392.788 362.848 382.862L360.159 380.767L360.114 380.797Z" fill="#263238"/>
<path d="M222.3 318.331C222.3 318.331 221.409 322.551 227.382 329.951L222.3 318.331Z" fill="#263238"/>
<path d="M14.2939 620.615C203.088 619.709 414.853 619.694 603.647 620.615C414.853 621.537 203.088 621.522 14.2939 620.615Z" fill="#263238"/>
<path d="M344.824 100.058C344.824 101.384 345.217 102.679 345.954 103.781C346.69 104.883 347.736 105.742 348.961 106.249C350.185 106.757 351.533 106.889 352.833 106.631C354.133 106.372 355.327 105.734 356.264 104.797C357.201 103.859 357.839 102.665 358.098 101.366C358.357 100.066 358.224 98.7182 357.717 97.4937C357.209 96.2692 356.35 95.2226 355.248 94.4863C354.146 93.75 352.851 93.3569 351.525 93.3569C350.645 93.3569 349.774 93.5303 348.961 93.867C348.148 94.2038 347.409 94.6974 346.787 95.3197C346.165 95.9419 345.671 96.6807 345.334 97.4937C344.998 98.3067 344.824 99.1782 344.824 100.058Z" fill="white"/>
<path d="M344.824 100.058C344.824 101.737 345.491 103.347 346.678 104.534C347.865 105.721 349.475 106.388 351.154 106.388C352.833 106.388 354.443 105.721 355.63 104.534C356.817 103.347 357.484 101.737 357.484 100.058C357.484 98.3795 356.817 96.7695 355.63 95.5825C354.443 94.3954 352.833 93.7285 351.154 93.7285C349.475 93.7285 347.865 94.3954 346.678 95.5825C345.491 96.7695 344.824 98.3795 344.824 100.058ZM344.824 100.058C345.092 90.7271 358.658 90.6528 358.97 100.058C358.658 109.449 345.092 109.375 344.824 100.058Z" fill="#263238"/>
<path d="M375.447 104.189C380.773 104.189 385.091 99.8714 385.091 94.5456C385.091 89.2198 380.773 84.9023 375.447 84.9023C370.122 84.9023 365.804 89.2198 365.804 94.5456C365.804 99.8714 370.122 104.189 375.447 104.189Z" fill="white"/>
<path d="M365.805 94.516C365.686 102.807 376.295 106.982 381.822 100.89C383.446 99.165 384.35 96.8851 384.35 94.516C384.35 92.1468 383.446 89.8669 381.822 88.1416C376.295 82.0644 365.686 86.2248 365.805 94.516ZM365.805 94.516C365.804 92.8548 366.216 91.2195 367.004 89.7569C367.792 88.2943 368.93 87.0503 370.317 86.1365C371.705 85.2228 373.297 84.6679 374.952 84.5218C376.607 84.3757 378.272 84.6428 379.798 85.2993C381.324 85.9558 382.663 86.981 383.695 88.2829C384.726 89.5848 385.419 91.1226 385.709 92.7581C386 94.3937 385.88 96.0758 385.359 97.6535C384.839 99.2311 383.935 100.655 382.729 101.797C381.3 103.13 379.515 104.019 377.59 104.354C375.665 104.689 373.683 104.457 371.888 103.684C370.093 102.912 368.562 101.634 367.482 100.006C366.401 98.3776 365.819 96.47 365.805 94.516Z" fill="#263238"/>
<path d="M462.177 117.235C504.735 117.235 539.234 91.5496 539.234 59.8655C539.234 28.1814 504.735 2.49634 462.177 2.49634C419.62 2.49634 385.121 28.1814 385.121 59.8655C385.121 91.5496 419.62 117.235 462.177 117.235Z" fill="white"/>
<path d="M387.231 46.5374C378.315 74.0704 398.672 99.0477 423.248 109.137C435.479 114.234 448.602 116.845 461.852 116.816C475.102 116.788 488.214 114.122 500.424 108.973C516.337 102.153 531.003 89.8503 536.411 72.9709C547.867 34.9031 509.472 7.78606 475.639 3.77423C441.985 -0.980527 399.533 11.8425 387.231 46.5374ZM387.231 46.5374C399.489 11.7385 441.895 -1.29256 475.743 3.0313C493.306 5.36411 510.75 12.0505 523.692 24.4426C536.842 36.5672 543.736 56.032 537.793 73.4315C522.251 116.819 461.182 126.923 423.04 109.568C398.553 99.1666 378.167 74.115 387.201 46.5374H387.231Z" fill="#263238"/>
<path d="M465.194 64.4568V70.118C465.21 70.6831 465.111 71.2456 464.903 71.7712C464.695 72.2968 464.381 72.7744 463.982 73.1749C463.583 73.5754 463.107 73.8903 462.582 74.1005C462.057 74.3106 461.495 74.4116 460.93 74.3972C459.797 74.3933 458.713 73.9407 457.913 73.1386C457.114 72.3365 456.665 71.2503 456.665 70.118V61.0542C456.665 60.9651 456.754 60.9651 456.754 60.8908C456.754 60.8165 456.665 60.8016 456.665 60.7125C456.709 59.594 457.172 58.533 457.962 57.7402C458.752 56.9474 459.811 56.4808 460.93 56.4332C463.519 56.4332 466.002 55.4047 467.832 53.5739C469.663 51.7432 470.692 49.2601 470.692 46.6711C470.692 44.082 469.663 41.5989 467.832 39.7682C466.002 37.9374 463.519 36.9089 460.93 36.9089C459.236 36.8996 457.57 37.3388 456.1 38.1817C454.631 39.0246 453.411 40.2413 452.564 41.7083C452.283 42.2076 451.904 42.6452 451.45 42.9953C450.996 43.3454 450.477 43.6008 449.923 43.7463C449.368 43.8918 448.79 43.9245 448.223 43.8424C447.656 43.7603 447.111 43.5651 446.621 43.2684C446.139 42.985 445.718 42.6091 445.383 42.1624C445.047 41.7157 444.803 41.2069 444.665 40.6655C444.527 40.1241 444.497 39.5606 444.578 39.0077C444.659 38.4548 444.848 37.9233 445.135 37.4438C446.656 34.8161 448.806 32.6075 451.392 31.0167C453.978 29.4258 456.919 28.5027 459.95 28.3301C462.981 28.1576 466.008 28.7412 468.758 30.0283C471.508 31.3154 473.895 33.2658 475.704 35.7041C477.513 38.1423 478.688 40.992 479.123 43.9968C479.558 47.0017 479.239 50.0676 478.196 52.9187C477.152 55.7699 475.416 58.317 473.144 60.331C470.872 62.345 468.135 63.7628 465.179 64.4568H465.194ZM465.194 83.5502V85.036C465.21 85.6012 465.111 86.1637 464.903 86.6893C464.695 87.2149 464.381 87.6925 463.982 88.093C463.583 88.4935 463.107 88.8084 462.582 89.0185C462.057 89.2287 461.495 89.3297 460.93 89.3153C459.797 89.3114 458.713 88.8588 457.913 88.0567C457.114 87.2546 456.665 86.1684 456.665 85.036V83.5502C456.68 82.4225 457.134 81.3452 457.93 80.5464C458.726 79.7476 459.802 79.2901 460.93 79.2709C461.493 79.2649 462.051 79.3716 462.572 79.5847C463.093 79.7978 463.566 80.113 463.964 80.5118C464.361 80.9106 464.675 81.3848 464.886 81.9066C465.097 82.4284 465.202 82.9873 465.194 83.5502Z" fill="#4F5A41"/>
</svg>
